<?xml version="1.0" encoding="UTF-8" standalone="no"?>
<!-- Created with Inkscape (http://www.inkscape.org/) -->

<svg
   xmlns:dc="http://purl.org/dc/elements/1.1/"
   xmlns:cc="http://creativecommons.org/ns#"
   xmlns:rdf="http://www.w3.org/1999/02/22-rdf-syntax-ns#"
   xmlns:svg="http://www.w3.org/2000/svg"
   xmlns="http://www.w3.org/2000/svg"
   xmlns:sodipodi="http://sodipodi.sourceforge.net/DTD/sodipodi-0.dtd"
   xmlns:inkscape="http://www.inkscape.org/namespaces/inkscape"
   id="svg2"
   version="1.1"
   inkscape:version="0.48.5 r10040"
   width="310.025656175"
   height="322.553949999" viewBox="0 0 371.005 385.9975"
   xml:space="preserve"
   sodipodi:docname="Carlton FC logo (introduced 2014).svg"><metadata
     id="metadata8"><rdf:RDF><cc:Work
         rdf:about=""><dc:format>image/svg+xml</dc:format><dc:type
           rdf:resource="http://purl.org/dc/dcmitype/StillImage" /><dc:title></dc:title></cc:Work></rdf:RDF></metadata><defs
     id="defs6"><clipPath
       clipPathUnits="userSpaceOnUse"
       id="clipPath16"><path
         d="m 0,0 595.275,0 0,419.528 L 0,419.528 0,0 z"
         id="path18"
         inkscape:connector-curvature="0" /></clipPath><clipPath
       clipPathUnits="userSpaceOnUse"
       id="clipPath30"><path
         d="m 0,0 595.276,0 0,419.528 L 0,419.528 0,0 z"
         id="path32"
         inkscape:connector-curvature="0" /></clipPath><clipPath
       clipPathUnits="userSpaceOnUse"
       id="clipPath38"><path
         d="m -15.1732,156.906 625.6222,0 0,-172.0792 -625.6222,0 0,172.0792 z"
         id="path40"
         inkscape:connector-curvature="0" /></clipPath><linearGradient
       x1="0"
       y1="0"
       x2="1"
       y2="0"
       gradientUnits="userSpaceOnUse"
       gradientTransform="matrix(0,168.44629,168.44629,0,278.22333,-12.540771)"
       spreadMethod="pad"
       id="linearGradient46"><stop
         style="stop-opacity:1;stop-color:#ffffff"
         offset="0"
         id="stop48" /><stop
         style="stop-opacity:0;stop-color:#ffffff"
         offset="1"
         id="stop50" /></linearGradient><mask
       maskUnits="userSpaceOnUse"
       x="0"
       y="0"
       width="1"
       height="1"
       id="mask52"><g
         id="g54"><g
           id="g56"><g
             id="g58"><g
               id="g60"><path
                 d="m -32768,32767 65535,0 0,-65535 -65535,0 0,65535 z"
                 style="fill:url(#linearGradient46);stroke:none"
                 id="path62"
                 inkscape:connector-curvature="0" /></g></g></g></g></mask><clipPath
       clipPathUnits="userSpaceOnUse"
       id="clipPath64"><path
         d="m -15.1732,156.906 625.6222,0 0,-172.0792 -625.6222,0 0,172.0792 z"
         id="path66"
         inkscape:connector-curvature="0" /></clipPath><clipPath
       clipPathUnits="userSpaceOnUse"
       id="clipPath100"><path
         d="m 195.591,41.811 204.094,0 0,61.228 -204.094,0 0,-61.228 z"
         id="path102"
         inkscape:connector-curvature="0" /></clipPath></defs><sodipodi:namedview
     pagecolor="#ffffff"
     bordercolor="#666666"
     borderopacity="1"
     objecttolerance="10"
     gridtolerance="10"
     guidetolerance="10"
     inkscape:pageopacity="0"
     inkscape:pageshadow="2"
     inkscape:window-width="1366"
     inkscape:window-height="705"
     id="namedview4"
     showgrid="false"
     fit-margin-top="2.36"
     fit-margin-left="2.44"
     fit-margin-right="2.44"
     fit-margin-bottom="2.35"
     inkscape:zoom="1.3585549"
     inkscape:cx="185.5025"
     inkscape:cy="192.99383"
     inkscape:window-x="-8"
     inkscape:window-y="-8"
     inkscape:window-maximized="1"
     inkscape:current-layer="g10" /><g
     id="g10"
     inkscape:groupmode="layer"
     inkscape:label="Drivers-of-Success"
     transform="matrix(1.25,0,0,-1.25,-95.598125,283.535)"><g
       id="g104"
       transform="matrix(5,0,0,5,355.231,67.286)"><path
         d="M 0,0 C 0.083,0.037 0.072,0.092 0.014,0.155 0.009,0.104 0.005,0.051 0,0"
         style="fill:#0e1e2d;fill-opacity:1;fill-rule:nonzero;stroke:none"
         id="path106"
         inkscape:connector-curvature="0" /></g><g
       id="g108"
       transform="matrix(5,0,0,5,354.6055,66.42)"><path
         d="M 0,0 0.058,0.577 0.218,0.4 C 0.24,0.376 0.307,0.302 0.288,0.209 0.279,0.17 0.253,0.114 0.169,0.077 L 0,0 z m -26.078,-29.302 -0.941,0.734 c -0.889,0.038 -2.078,0.361 -2.351,0.447 l -0.531,0.166 0.879,2.405 c -5.328,0.551 -10.403,2.548 -14.688,5.778 -4.4,3.319 -7.776,7.776 -9.764,12.891 -0.175,0.451 0.095,1.138 0.35,1.393 0.042,0.042 0.077,0.077 0.306,0.198 -0.339,0.106 -0.655,0.319 -0.928,0.625 -0.271,0.303 -0.497,0.671 -0.671,1.093 -0.145,0.351 -0.264,0.727 -0.364,1.149 -0.059,0.249 -0.114,0.521 -0.17,0.834 l -0.092,0.57 c -0.022,0.147 -0.041,0.292 -0.059,0.444 l -0.055,0.528 c -0.014,0.156 -0.026,0.311 -0.037,0.471 l -0.027,0.519 c -0.007,0.171 -0.012,0.338 -0.014,0.515 l 0.006,0.59 c 0.02,0.328 0.064,0.793 0.069,0.845 l 0.016,0.163 0.105,0.125 c 0.09,0.109 0.905,1.057 1.829,1.057 0.084,0 0.214,-0.01 0.398,-0.031 -0.136,0.656 -0.173,1.504 -0.077,1.845 l 0.304,1.077 0.064,-0.091 c 0.195,1.275 0.483,2.54 0.857,3.765 -0.035,0.676 0.098,1.667 0.272,2.013 l 0.504,1.004 0.176,-0.397 c 0.558,1.313 1.224,2.589 1.984,3.797 0.083,0.776 0.778,2.009 1.092,2.295 l 0.83,0.755 0.018,-0.353 c 0.824,1.008 1.725,1.961 2.68,2.836 0.012,0.062 0.023,0.116 0.034,0.162 0.183,0.774 1.191,1.988 1.59,2.233 l 0.956,0.587 -0.136,-0.997 c 1.192,0.858 2.458,1.62 3.768,2.269 0.058,0.103 0.107,0.184 0.148,0.246 0.418,0.635 1.724,1.395 2.164,1.484 l 1.1,0.225 -0.355,-0.672 c 1.008,0.351 2.042,0.643 3.078,0.87 0.691,1.18 2.183,2.049 4.104,2.387 l 0.58,0.102 0.001,-0.017 c 0.116,0.012 0.231,0.022 0.339,0.03 l 0.55,0.042 0,-0.016 0.055,0.002 c 0.13,0.005 0.226,0.004 0.333,-0.001 l 0.072,-0.002 0,0.005 0.111,0.002 0.393,-0.022 0,-0.01 0.07,-0.006 c 0.091,-0.007 0.183,-0.015 0.273,-0.024 l 10e-4,0.006 0.116,-0.009 0.38,-0.056 0,-0.011 0.085,-0.015 c 1.932,-0.341 3.428,-1.216 4.113,-2.405 1.045,-0.232 2.085,-0.53 3.098,-0.887 l -0.374,0.707 1.101,-0.225 c 0.44,-0.089 1.746,-0.849 2.163,-1.484 0.049,-0.075 0.109,-0.174 0.18,-0.303 1.271,-0.636 2.499,-1.38 3.657,-2.213 l -0.122,0.889 0.955,-0.588 c 0.382,-0.235 1.348,-1.398 1.522,-2.138 0.007,-0.027 0.013,-0.055 0.019,-0.087 1.012,-0.919 1.961,-1.924 2.824,-2.989 l 0.023,0.445 0.829,-0.754 c 0.332,-0.301 1.065,-1.623 1.099,-2.383 10e-4,-0.018 0.002,-0.037 0.002,-0.056 0.741,-1.196 1.391,-2.455 1.934,-3.747 l 0.219,0.491 0.504,-1.004 C -0.367,12.446 -0.213,11.333 -0.3,10.593 0.053,9.403 0.324,8.177 0.509,6.942 L 0.642,7.133 0.944,6.052 C 1.034,5.73 1.005,4.939 0.885,4.299 1.328,4.284 1.89,4.214 2.277,3.985 2.597,3.795 3.064,3.339 3.116,3.287 L 3.26,3.146 3.345,1.94 3.34,1.297 3.32,0.755 3.28,0.171 3.239,-0.272 3.168,-0.86 3.106,-1.276 2.988,-1.921 C 2.987,-1.923 2.924,-2.225 2.889,-2.374 2.79,-2.794 2.671,-3.17 2.525,-3.524 2.349,-3.947 2.124,-4.315 1.855,-4.616 1.591,-4.912 1.285,-5.121 0.957,-5.232 c 0.212,-0.115 0.259,-0.155 0.298,-0.189 0.477,-0.414 0.503,-0.945 0.368,-1.304 -1.978,-5.177 -5.372,-9.685 -9.814,-13.039 -4.327,-3.266 -9.456,-5.269 -14.842,-5.799 l 0.877,-2.417 -0.583,-0.168 c -0.893,-0.264 -1.736,-0.411 -2.506,-0.438 l -0.833,-0.716 z"
         style="fill:#0e1e2d;fill-opacity:1;fill-rule:nonzero;stroke:none"
         id="path110"
         inkscape:connector-curvature="0" /></g><g
       id="g112"
       transform="matrix(5,0,0,5,102.2025,73.8095)"><path
         d="m 0,0 c 0,0 -1.318,1.713 -1.614,2.236 -0.295,0.522 -0.371,1.889 -0.284,2.198 0,0 1.612,-2.301 1.804,-2.847 C 0.098,1.041 0,0 0,0"
         style="fill:#b9bebf;fill-opacity:1;fill-rule:nonzero;stroke:none"
         id="path114"
         inkscape:connector-curvature="0" /></g><g
       id="g116"
       transform="matrix(5,0,0,5,113.133,87.017)"><path
         d="m 0,0 c 0.351,0.496 0.557,1.885 0.557,1.885 0,0 -1.928,-1.607 -2.287,-2.289 -0.166,-0.316 -0.191,-1.567 -0.191,-1.567 0,0 1.569,1.475 1.921,1.971"
         style="fill:#b9bebf;fill-opacity:1;fill-rule:nonzero;stroke:none"
         id="path118"
         inkscape:connector-curvature="0" /></g><g
       id="g120"
       transform="matrix(5,0,0,5,102.5695,83.6125)"><path
         d="m 0,0 c 0,0 -0.68,0.949 -0.98,1.654 -0.33,0.771 0.516,2.694 0.516,2.694 0,0 0.594,-1.387 0.599,-1.899 C 0.141,1.938 0,0 0,0"
         style="fill:#b9bebf;fill-opacity:1;fill-rule:nonzero;stroke:none"
         id="path122"
         inkscape:connector-curvature="0" /></g><g
       id="g124"
       transform="matrix(5,0,0,5,104.188,87.739)"><path
         d="m 0,0 c 0,0 0.783,0.717 1.187,1.355 0.443,0.697 0.227,2.341 0.227,2.341 0,0 -1.157,-1.17 -1.239,-1.672 C 0.091,1.521 0,0 0,0"
         style="fill:#b9bebf;fill-opacity:1;fill-rule:nonzero;stroke:none"
         id="path126"
         inkscape:connector-curvature="0" /></g><g
       id="g128"
       transform="matrix(5,0,0,5,105.0785,105.748)"><path
         d="m 0,0 c 0,0 -0.965,1.934 -1.156,2.503 -0.189,0.57 -0.001,1.926 0.143,2.213 0,0 1.141,-2.567 1.225,-3.14 C 0.296,1.003 0,0 0,0"
         style="fill:#b9bebf;fill-opacity:1;fill-rule:nonzero;stroke:none"
         id="path130"
         inkscape:connector-curvature="0" /></g><g
       id="g132"
       transform="matrix(5,0,0,5,118.339,116.617)"><path
         d="m 0,0 c 0.44,0.42 0.909,1.743 0.909,1.743 0,0 -2.201,-1.207 -2.684,-1.809 -0.224,-0.277 -0.488,-1.501 -0.488,-1.501 0,0 1.823,1.147 2.263,1.567"
         style="fill:#b9bebf;fill-opacity:1;fill-rule:nonzero;stroke:none"
         id="path134"
         inkscape:connector-curvature="0" /></g><g
       id="g136"
       transform="matrix(5,0,0,5,107.321,115.2985)"><path
         d="m 0,0 c 0,0 -0.486,1.062 -0.645,1.811 -0.175,0.82 1.022,2.546 1.022,2.546 0,0 0.317,-1.476 0.224,-1.979 C 0.509,1.875 0,0 0,0"
         style="fill:#b9bebf;fill-opacity:1;fill-rule:nonzero;stroke:none"
         id="path138"
         inkscape:connector-curvature="0" /></g><g
       id="g140"
       transform="matrix(5,0,0,5,109.699,119.0395)"><path
         d="m 0,0 c 0,0 0.906,0.554 1.425,1.102 0.567,0.6 0.671,2.255 0.671,2.255 0,0 -1.359,-0.927 -1.537,-1.405 C 0.38,1.475 0,0 0,0"
         style="fill:#b9bebf;fill-opacity:1;fill-rule:nonzero;stroke:none"
         id="path142"
         inkscape:connector-curvature="0" /></g><g
       id="g144"
       transform="matrix(5,0,0,5,114.4855,138.2195)"><path
         d="m 0,0 c 0,0 -0.208,2.151 -0.181,2.751 0.026,0.6 0.688,1.798 0.925,2.014 0,0 0.146,-2.805 0.019,-3.37 C 0.636,0.83 0,0 0,0"
         style="fill:#b9bebf;fill-opacity:1;fill-rule:nonzero;stroke:none"
         id="path146"
         inkscape:connector-curvature="0" /></g><g
       id="g148"
       transform="matrix(5,0,0,5,130.763,143.6125)"><path
         d="m 0,0 c 0.561,0.234 1.473,1.301 1.473,1.301 0,0 -2.487,-0.338 -3.154,-0.726 -0.309,-0.178 -0.994,-1.226 -0.994,-1.226 0,0 2.114,0.417 2.675,0.651"
         style="fill:#b9bebf;fill-opacity:1;fill-rule:nonzero;stroke:none"
         id="path150"
         inkscape:connector-curvature="0" /></g><g
       id="g152"
       transform="matrix(5,0,0,5,120.003,146.3315)"><path
         d="m 0,0 c 0,0 -0.073,1.165 0.047,1.922 0.13,0.828 1.867,2.01 1.867,2.01 0,0 -0.233,-1.492 -0.5,-1.928 C 1.147,1.568 0,0 0,0"
         style="fill:#b9bebf;fill-opacity:1;fill-rule:nonzero;stroke:none"
         id="path154"
         inkscape:connector-curvature="0" /></g><g
       id="g156"
       transform="matrix(5,0,0,5,123.563,148.9705)"><path
         d="M 0,0 C 0,0 1.045,0.192 1.726,0.518 2.47,0.875 3.16,2.382 3.16,2.382 3.16,2.382 1.559,2.005 1.222,1.622 0.884,1.241 0,0 0,0"
         style="fill:#b9bebf;fill-opacity:1;fill-rule:nonzero;stroke:none"
         id="path158"
         inkscape:connector-curvature="0" /></g><g
       id="g160"
       transform="matrix(5,0,0,5,135.0685,165.997)"><path
         d="m 0,0 c 0,0 0.204,2.266 0.349,2.881 0.145,0.615 1.063,1.726 1.352,1.903 0,0 -0.398,-2.931 -0.64,-3.49 C 0.82,0.734 0,0 0,0"
         style="fill:#b9bebf;fill-opacity:1;fill-rule:nonzero;stroke:none"
         id="path162"
         inkscape:connector-curvature="0" /></g><g
       id="g164"
       transform="matrix(5,0,0,5,152.958,168.3955)"><path
         d="m 0,0 c 0.626,0.133 1.777,1.059 1.777,1.059 0,0 -2.639,0.135 -3.404,-0.136 -0.354,-0.124 -1.267,-1.074 -1.267,-1.074 0,0 2.267,0.018 2.894,0.151"
         style="fill:#b9bebf;fill-opacity:1;fill-rule:nonzero;stroke:none"
         id="path166"
         inkscape:connector-curvature="0" /></g><g
       id="g168"
       transform="matrix(5,0,0,5,142.3575,173.31)"><path
         d="M 0,0 C 0,0 0.152,1.219 0.425,1.979 0.72,2.81 2.747,3.693 2.747,3.693 2.747,3.693 2.216,2.196 1.854,1.797 1.493,1.397 0,0 0,0"
         style="fill:#b9bebf;fill-opacity:1;fill-rule:nonzero;stroke:none"
         id="path170"
         inkscape:connector-curvature="0" /></g><g
       id="g172"
       transform="matrix(5,0,0,5,146.556,175.343)"><path
         d="m 0,0 c 0,0 1.118,-0.005 1.886,0.199 0.84,0.224 1.848,1.648 1.848,1.648 0,0 -1.729,-0.078 -2.153,-0.407 C 1.157,1.111 0,0 0,0"
         style="fill:#b9bebf;fill-opacity:1;fill-rule:nonzero;stroke:none"
         id="path174"
         inkscape:connector-curvature="0" /></g><g
       id="g176"
       transform="matrix(5,0,0,5,161.8115,188.9615)"><path
         d="m 0,0 c 0,0 0.923,1.954 1.253,2.456 0.33,0.501 1.512,1.192 1.826,1.256 0,0 -1.311,-2.484 -1.71,-2.905 C 0.971,0.387 0,0 0,0"
         style="fill:#b9bebf;fill-opacity:1;fill-rule:nonzero;stroke:none"
         id="path178"
         inkscape:connector-curvature="0" /></g><g
       id="g180"
       transform="matrix(5,0,0,5,178.5495,185.258)"><path
         d="m 0,0 c 0.602,-0.086 1.932,0.364 1.932,0.364 0,0 -2.31,0.983 -3.081,0.991 C -1.506,1.36 -2.63,0.81 -2.63,0.81 -2.63,0.81 -0.602,0.087 0,0"
         style="fill:#b9bebf;fill-opacity:1;fill-rule:nonzero;stroke:none"
         id="path182"
         inkscape:connector-curvature="0" /></g><g
       id="g184"
       transform="matrix(5,0,0,5,170.7045,193.104)"><path
         d="m 0,0 c 0,0 0.533,1.038 1.024,1.626 0.536,0.646 2.632,0.771 2.632,0.771 0,0 -0.962,-1.162 -1.416,-1.4 C 1.788,0.759 0,0 0,0"
         style="fill:#b9bebf;fill-opacity:1;fill-rule:nonzero;stroke:none"
         id="path186"
         inkscape:connector-curvature="0" /></g><g
       id="g188"
       transform="matrix(5,0,0,5,175.1135,193.546)"><path
         d="m 0,0 c 0,0 0.994,-0.37 1.747,-0.438 0.822,-0.075 2.187,0.866 2.187,0.866 0,0 -1.569,0.496 -2.054,0.34 C 1.394,0.613 0,0 0,0"
         style="fill:#b9bebf;fill-opacity:1;fill-rule:nonzero;stroke:none"
         id="path190"
         inkscape:connector-curvature="0" /></g><g
       id="g192"
       transform="matrix(5,0,0,5,347.272,73.8095)"><path
         d="m 0,0 c 0,0 1.318,1.713 1.614,2.236 0.295,0.522 0.371,1.889 0.284,2.198 0,0 -1.612,-2.301 -1.804,-2.847 C -0.098,1.041 0,0 0,0"
         style="fill:#b9bebf;fill-opacity:1;fill-rule:nonzero;stroke:none"
         id="path194"
         inkscape:connector-curvature="0" /></g><g
       id="g196"
       transform="matrix(5,0,0,5,336.34,87.017)"><path
         d="m 0,0 c -0.351,0.496 -0.558,1.885 -0.558,1.885 0,0 1.929,-1.607 2.288,-2.289 0.167,-0.316 0.191,-1.567 0.191,-1.567 0,0 -1.569,1.475 -1.921,1.971"
         style="fill:#b9bebf;fill-opacity:1;fill-rule:nonzero;stroke:none"
         id="path198"
         inkscape:connector-curvature="0" /></g><g
       id="g200"
       transform="matrix(5,0,0,5,346.9015,83.6125)"><path
         d="m 0,0 c 0,0 0.68,0.949 0.98,1.654 0.329,0.771 -0.515,2.694 -0.515,2.694 0,0 -0.595,-1.387 -0.599,-1.899 C -0.141,1.938 0,0 0,0"
         style="fill:#b9bebf;fill-opacity:1;fill-rule:nonzero;stroke:none"
         id="path202"
         inkscape:connector-curvature="0" /></g><g
       id="g204"
       transform="matrix(5,0,0,5,345.2835,87.739)"><path
         d="m 0,0 c 0,0 -0.783,0.717 -1.187,1.355 -0.442,0.697 -0.227,2.341 -0.227,2.341 0,0 1.157,-1.17 1.24,-1.672 C -0.09,1.521 0,0 0,0"
         style="fill:#b9bebf;fill-opacity:1;fill-rule:nonzero;stroke:none"
         id="path206"
         inkscape:connector-curvature="0" /></g><g
       id="g208"
       transform="matrix(5,0,0,5,344.3945,105.748)"><path
         d="m 0,0 c 0,0 0.966,1.934 1.155,2.503 0.19,0.57 0.003,1.926 -0.141,2.213 0,0 -1.142,-2.567 -1.226,-3.14 C -0.297,1.003 0,0 0,0"
         style="fill:#b9bebf;fill-opacity:1;fill-rule:nonzero;stroke:none"
         id="path210"
         inkscape:connector-curvature="0" /></g><g
       id="g212"
       transform="matrix(5,0,0,5,331.133,116.617)"><path
         d="m 0,0 c -0.44,0.42 -0.908,1.743 -0.908,1.743 0,0 2.2,-1.207 2.684,-1.809 0.223,-0.277 0.487,-1.501 0.487,-1.501 0,0 -1.823,1.147 -2.263,1.567"
         style="fill:#b9bebf;fill-opacity:1;fill-rule:nonzero;stroke:none"
         id="path214"
         inkscape:connector-curvature="0" /></g><g
       id="g216"
       transform="matrix(5,0,0,5,342.1525,115.2985)"><path
         d="m 0,0 c 0,0 0.485,1.062 0.645,1.811 0.176,0.82 -1.022,2.546 -1.022,2.546 0,0 -0.318,-1.476 -0.224,-1.979 C -0.509,1.875 0,0 0,0"
         style="fill:#b9bebf;fill-opacity:1;fill-rule:nonzero;stroke:none"
         id="path218"
         inkscape:connector-curvature="0" /></g><g
       id="g220"
       transform="matrix(5,0,0,5,339.7735,119.0395)"><path
         d="m 0,0 c 0,0 -0.906,0.554 -1.425,1.102 -0.567,0.6 -0.671,2.255 -0.671,2.255 0,0 1.359,-0.927 1.537,-1.405 C -0.38,1.475 0,0 0,0"
         style="fill:#b9bebf;fill-opacity:1;fill-rule:nonzero;stroke:none"
         id="path222"
         inkscape:connector-curvature="0" /></g><g
       id="g224"
       transform="matrix(5,0,0,5,334.987,138.2195)"><path
         d="m 0,0 c 0,0 0.208,2.151 0.181,2.751 -0.027,0.6 -0.688,1.798 -0.925,2.014 0,0 -0.146,-2.805 -0.019,-3.37 C -0.636,0.83 0,0 0,0"
         style="fill:#b9bebf;fill-opacity:1;fill-rule:nonzero;stroke:none"
         id="path226"
         inkscape:connector-curvature="0" /></g><g
       id="g228"
       transform="matrix(5,0,0,5,318.708,143.6125)"><path
         d="m 0,0 c -0.56,0.234 -1.472,1.301 -1.472,1.301 0,0 2.486,-0.338 3.153,-0.726 0.309,-0.178 0.994,-1.226 0.994,-1.226 0,0 -2.113,0.417 -2.675,0.651"
         style="fill:#b9bebf;fill-opacity:1;fill-rule:nonzero;stroke:none"
         id="path230"
         inkscape:connector-curvature="0" /></g><g
       id="g232"
       transform="matrix(5,0,0,5,329.471,146.3315)"><path
         d="m 0,0 c 0,0 0.073,1.165 -0.047,1.922 -0.13,0.828 -1.867,2.01 -1.867,2.01 0,0 0.232,-1.492 0.5,-1.928 C -1.147,1.568 0,0 0,0"
         style="fill:#b9bebf;fill-opacity:1;fill-rule:nonzero;stroke:none"
         id="path234"
         inkscape:connector-curvature="0" /></g><g
       id="g236"
       transform="matrix(5,0,0,5,325.908,148.9705)"><path
         d="m 0,0 c 0,0 -1.044,0.192 -1.725,0.518 -0.744,0.357 -1.435,1.864 -1.435,1.864 0,0 1.601,-0.377 1.938,-0.76 C -0.884,1.241 0,0 0,0"
         style="fill:#b9bebf;fill-opacity:1;fill-rule:nonzero;stroke:none"
         id="path238"
         inkscape:connector-curvature="0" /></g><g
       id="g240"
       transform="matrix(5,0,0,5,313.6505,166.641)"><path
         d="m 0,0 c 0,0 -0.194,2.152 -0.332,2.737 -0.138,0.584 -1.01,1.639 -1.283,1.808 0,0 0.377,-2.784 0.607,-3.316 C -0.779,0.698 0,0 0,0"
         style="fill:#b9bebf;fill-opacity:1;fill-rule:nonzero;stroke:none"
         id="path242"
         inkscape:connector-curvature="0" /></g><g
       id="g244"
       transform="matrix(5,0,0,5,296.6545,168.9205)"><path
         d="m 0,0 c -0.594,0.126 -1.688,1.005 -1.688,1.005 0,0 2.507,0.13 3.233,-0.128 C 1.882,0.759 2.75,-0.144 2.75,-0.144 2.75,-0.144 0.596,-0.126 0,0"
         style="fill:#b9bebf;fill-opacity:1;fill-rule:nonzero;stroke:none"
         id="path246"
         inkscape:connector-curvature="0" /></g><g
       id="g248"
       transform="matrix(5,0,0,5,306.7235,173.589)"><path
         d="m 0,0 c 0,0 -0.144,1.158 -0.403,1.88 -0.281,0.79 -2.207,1.628 -2.207,1.628 0,0 0.505,-1.422 0.85,-1.801 C -1.418,1.327 0,0 0,0"
         style="fill:#b9bebf;fill-opacity:1;fill-rule:nonzero;stroke:none"
         id="path250"
         inkscape:connector-curvature="0" /></g><g
       id="g252"
       transform="matrix(5,0,0,5,302.738,175.5205)"><path
         d="m 0,0 c 0,0 -1.062,-0.005 -1.792,0.189 -0.798,0.212 -1.756,1.566 -1.756,1.566 0,0 1.643,-0.074 2.046,-0.387 C -1.099,1.055 0,0 0,0"
         style="fill:#b9bebf;fill-opacity:1;fill-rule:nonzero;stroke:none"
         id="path254"
         inkscape:connector-curvature="0" /></g><g
       id="g256"
       transform="matrix(5,0,0,5,287.663,188.9615)"><path
         d="m 0,0 c 0,0 -0.923,1.954 -1.253,2.456 -0.33,0.501 -1.512,1.192 -1.826,1.256 0,0 1.311,-2.484 1.71,-2.905 C -0.971,0.387 0,0 0,0"
         style="fill:#b9bebf;fill-opacity:1;fill-rule:nonzero;stroke:none"
         id="path258"
         inkscape:connector-curvature="0" /></g><g
       id="g260"
       transform="matrix(5,0,0,5,270.9225,185.258)"><path
         d="m 0,0 c -0.602,-0.086 -1.931,0.364 -1.931,0.364 0,0 2.309,0.983 3.08,0.991 C 1.506,1.36 2.631,0.81 2.631,0.81 2.631,0.81 0.602,0.087 0,0"
         style="fill:#b9bebf;fill-opacity:1;fill-rule:nonzero;stroke:none"
         id="path262"
         inkscape:connector-curvature="0" /></g><g
       id="g264"
       transform="matrix(5,0,0,5,278.7695,193.104)"><path
         d="m 0,0 c 0,0 -0.533,1.038 -1.025,1.626 -0.535,0.646 -2.632,0.771 -2.632,0.771 0,0 0.963,-1.162 1.417,-1.4 C -1.788,0.759 0,0 0,0"
         style="fill:#b9bebf;fill-opacity:1;fill-rule:nonzero;stroke:none"
         id="path266"
         inkscape:connector-curvature="0" /></g><g
       id="g268"
       transform="matrix(5,0,0,5,274.361,193.546)"><path
         d="m 0,0 c 0,0 -0.995,-0.37 -1.747,-0.438 -0.823,-0.075 -2.187,0.866 -2.187,0.866 0,0 1.568,0.496 2.054,0.34 C -1.395,0.613 0,0 0,0"
         style="fill:#b9bebf;fill-opacity:1;fill-rule:nonzero;stroke:none"
         id="path270"
         inkscape:connector-curvature="0" /></g><g
       id="g272"
       transform="matrix(5,0,0,5,232.6475,221.556)"><path
         d="m 0,0 -0.048,-0.691 c -0.008,-0.108 -0.101,-0.189 -0.209,-0.182 -0.099,0.007 -0.175,0.086 -0.182,0.182 l -0.054,0.765 c -0.11,0.013 -0.224,0.022 -0.336,0.031 L -0.88,-1.02 c -0.005,-0.113 -0.101,-0.201 -0.215,-0.196 -0.106,0.005 -0.19,0.091 -0.196,0.196 l -0.051,1.151 c -0.082,0.003 -0.163,0.008 -0.246,0.008 -0.069,0 -0.136,-0.005 -0.204,-0.006 L -1.839,-1.02 c -0.004,-0.116 -0.103,-0.207 -0.219,-0.202 -0.11,0.004 -0.197,0.094 -0.202,0.202 L -2.306,0.109 C -2.434,0.099 -2.561,0.088 -2.686,0.073 l -0.056,-0.764 c -0.007,-0.106 -0.099,-0.186 -0.205,-0.178 -0.096,0.007 -0.171,0.084 -0.178,0.178 L -3.174,0 c -2.348,-0.413 -4.064,-1.718 -4.064,-3.266 0,-1.882 2.53,-3.406 5.65,-3.406 3.12,0 5.649,1.524 5.649,3.406 C 4.061,-1.719 2.347,-0.414 0,0"
         style="fill:#b9bebf;fill-opacity:1;fill-rule:nonzero;stroke:none"
         id="path274"
         inkscape:connector-curvature="0" /></g><g
       id="g276"
       transform="matrix(5,0,0,5,224.6965,20.9225)"><path
         d="m 0,0 c -0.386,0.264 -0.5,0.537 -0.532,0.712 -0.005,0.051 -0.005,0.1 -0.005,0.14 -0.027,0.965 0.147,4.299 0.147,4.299 0,0 -1.351,0.217 -2.557,0.805 L -3.026,0.897 c 0,0 0.003,-0.006 0.003,-0.012 C -3.026,0.873 -3.027,0.864 -3.027,0.852 -3.028,0.812 -3.029,0.763 -3.033,0.712 -3.065,0.537 -3.181,0.264 -3.563,0 c -0.476,-0.323 -0.52,-0.516 -0.473,-1.189 0.043,-0.671 0.306,-0.983 0.846,-0.962 0.038,0 0.08,0.002 0.132,0.002 l 0,-0.002 c 0,0 0.547,0.008 1.276,0.01 0.731,-0.002 1.275,-0.01 1.275,-0.01 l 0,0.002 c 0.052,0 0.098,-0.002 0.131,-0.002 0.542,-0.021 0.806,0.291 0.85,0.962 C 0.518,-0.516 0.475,-0.323 0,0 M 9.748,8.867 C 9.163,9.273 8.775,8.819 8.696,8.704 c 0,0 -2.111,-4.559 -7.338,-4.332 0,0 -0.043,0.007 -0.109,0 -0.468,0.03 -1.132,0.085 -1.223,0.151 l -0.08,-2.304 c 0,0 0.538,-0.058 1.063,-0.089 C 1.068,2.122 1.136,2.119 1.212,2.119 1.732,2.1 6.927,1.757 9.995,7.781 c 0,0 0.339,0.68 -0.247,1.086 m -2.631,7.266 c 0,0 0.059,0.539 -0.951,2.606 0,0 -0.294,0.713 -1.129,0.938 -0.638,0.174 -1.459,0.376 -1.459,0.376 0,0 -0.759,0.407 -1.603,0.602 l 0.005,0.01 c 0,0 -1.056,0.264 -2.041,0.282 l -0.035,-2.286 c 0,0 0.269,0.1 1.312,0.073 0.497,-0.048 1.387,-0.058 2.649,-1.009 1.531,-1.15 2.086,-2.04 2.086,-2.04 0,0 0.448,-0.673 0.855,-0.539 0.401,0.137 0.311,0.987 0.311,0.987 M -6.942,12.321 c 0.164,-1.41 1.851,-5.503 5.841,-6.578 3.99,-1.075 6.812,0.897 7.645,2.107 0,0 0.716,0.694 0.113,1.232 C 6.05,9.619 5.558,8.949 5.535,8.97 5.511,8.993 1.32,5.81 -1.929,8.276 c -3.251,2.465 -2.36,6.435 -2.035,7.22 0,0 0.29,0.844 0.642,1.285 l 0.021,3.263 c 0,0 -2.722,-1.577 -3.477,-4.9 l 0.002,0 c -0.264,-0.966 -0.318,-1.48 -0.166,-2.823 m 3.472,-9.636 0.033,2.739 c -0.284,0.09 -0.66,0.321 -1.038,0.594 -0.052,0.043 -0.103,0.087 -0.161,0.129 -1.204,0.852 -4.532,3.766 -3.389,9.245 1.142,5.478 7.462,7.497 11.465,6.285 4,-1.21 4.672,-3.963 5.042,-4.604 0.229,-0.397 0.505,-0.839 1.009,-0.773 0.504,0.068 0.303,1.143 0.303,1.143 l -0.978,3.556 c 0,0 -0.226,0.957 -1.305,1.329 -0.89,0.309 -1.145,0.429 -1.713,0.714 0,0 -6.426,4.398 -13.654,-1.332 0,0 -2.557,-2.284 -3.296,-4.939 0,0 -0.397,-1.459 -0.418,-2 -0.036,-0.784 -0.085,-1.766 0.081,-2.876 0.161,-1.046 1.072,-5.936 5.823,-8.457 l 0,-0.006 c 0.084,-0.041 0.164,-0.079 0.242,-0.119 0.204,-0.101 0.408,-0.201 0.625,-0.291 0,0 0.089,-0.05 0.217,-0.081 0.843,-0.326 1.112,-0.256 1.112,-0.256 m 2.991,18.671 c 0,0 -1.536,0.046 -2.367,-0.716 L -2.89,10.111 c 0,0 0.851,-1.523 2.509,-2.107 l -0.045,3.607 c 0,0 -0.156,0.695 0.741,0.649 0.897,-0.045 0.732,-0.112 1.45,-0.955 0.518,-0.608 1.039,-0.575 1.335,-0.464 0.462,0.172 0.646,0.488 0.52,1.018 -0.255,1.071 -0.973,3.158 -0.973,3.158 0,0 -0.103,0.771 -0.862,0.698 -0.729,-0.071 -0.733,-0.563 -0.733,-0.563 0,0 0.048,-0.65 -0.757,-0.627 -0.811,0.021 -0.742,0.829 -0.742,0.829 l -0.032,6.002 z m -2.509,4.448 0,-1.095 c 0,0 1.165,0.393 2.47,0.393 0,0 -0.263,0.772 1.941,0.649 2.208,-0.123 2.511,-0.229 3.728,-1.147 0.151,-0.102 0.764,-0.846 1.444,-0.644 0.712,0.211 0.283,0.803 0.283,0.803 l -1.442,2.43 c 0,0 -0.257,0.509 -0.969,0.593 -0.629,0.078 -1.197,0.086 -2.124,0.099 l -5.441,0.019 c 0,0 -0.602,0.03 -0.623,-0.908 -0.022,-0.97 0.469,-0.875 0.733,-1.192"
         style="fill:#ffffff;fill-opacity:1;fill-rule:nonzero;stroke:none"
         id="path278"
         inkscape:connector-curvature="0" /></g><g
       id="g280"
       transform="matrix(5,0,0,5,240.81,-14.323)"><path
         d="m 0,0 c -0.088,-0.088 -0.163,-0.141 -0.272,-0.191 -0.105,-0.047 -0.246,-0.074 -0.384,-0.045 -0.14,0.029 -0.251,0.105 -0.329,0.181 -0.079,0.08 -0.132,0.155 -0.18,0.241 -0.087,0.148 -0.152,0.341 -0.166,0.527 -0.014,0.19 0.016,0.376 0.072,0.542 0.114,0.335 0.309,0.6 0.513,0.834 0.207,0.234 0.43,0.441 0.661,0.632 0.461,0.384 0.956,0.711 1.433,1.029 0.46,0.32 0.953,0.661 1.435,0.975 1.937,1.272 3.925,2.44 5.622,3.923 1.681,1.472 3.12,3.29 3.576,5.397 0.116,0.524 0.178,1.049 0.159,1.57 -0.017,0.523 -0.102,1.045 -0.245,1.557 -0.074,0.258 -0.155,0.508 -0.255,0.746 -0.101,0.244 -0.215,0.485 -0.339,0.7 -0.118,0.209 -0.278,0.416 -0.359,0.469 -0.016,0.01 -0.022,0.009 0.005,-0.003 0.024,-0.011 0.093,-0.022 0.151,-0.01 0.126,0.035 0.106,0.062 0.07,0.003 -0.193,-0.329 -0.618,-0.438 -0.946,-0.244 -0.329,0.194 -0.438,0.618 -0.244,0.947 0.013,0.023 0.028,0.046 0.044,0.067 l 0.039,0.05 c 0.07,0.091 0.151,0.186 0.269,0.281 0.118,0.093 0.277,0.188 0.479,0.23 0.198,0.046 0.417,0.02 0.577,-0.038 0.164,-0.058 0.282,-0.137 0.381,-0.213 0.372,-0.312 0.525,-0.605 0.691,-0.894 0.156,-0.29 0.28,-0.576 0.39,-0.869 0.114,-0.298 0.201,-0.6 0.277,-0.9 0.15,-0.604 0.233,-1.231 0.233,-1.863 0.003,-0.634 -0.091,-1.262 -0.244,-1.859 C 12.808,12.572 12.24,11.454 11.51,10.487 10.792,9.521 9.933,8.671 9.021,7.921 7.185,6.417 5.132,5.301 3.179,4.101 2.684,3.799 2.218,3.498 1.722,3.175 1.229,2.867 0.751,2.571 0.312,2.229 -0.117,1.893 -0.537,1.496 -0.698,1.064 -0.774,0.849 -0.767,0.657 -0.66,0.463 -0.614,0.37 -0.543,0.319 -0.541,0.327 c 0.004,-0.001 0.012,-0.002 0.038,0.009 0.022,0.008 0.067,0.041 0.081,0.055 l 0.004,0.006 c 0.107,0.117 0.289,0.125 0.407,0.018 C 0.106,0.308 0.114,0.126 0.007,0.008 0.005,0.006 0.002,0.003 0,0"
         style="fill:#b9bebf;fill-opacity:1;fill-rule:nonzero;stroke:none"
         id="path282"
         inkscape:connector-curvature="0" /></g><g
       id="g284"
       transform="matrix(5,0,0,5,208.438,-12.366)"><path
         d="m 0,0 c 0.013,-0.014 0.058,-0.047 0.08,-0.055 0.027,-0.012 0.035,-0.01 0.038,-0.009 0.002,-0.009 0.073,0.043 0.119,0.136 0.107,0.194 0.114,0.386 0.039,0.6 -0.161,0.433 -0.582,0.83 -1.011,1.165 -0.438,0.342 -0.916,0.639 -1.409,0.946 -0.497,0.324 -0.963,0.625 -1.458,0.927 -1.953,1.2 -4.006,2.315 -5.841,3.819 -0.912,0.751 -1.771,1.601 -2.489,2.567 -0.73,0.966 -1.298,2.084 -1.604,3.285 -0.153,0.597 -0.247,1.225 -0.245,1.859 0,0.631 0.084,1.258 0.234,1.863 0.075,0.299 0.162,0.602 0.276,0.9 0.111,0.292 0.235,0.578 0.39,0.868 0.166,0.289 0.32,0.583 0.691,0.894 0.1,0.077 0.217,0.156 0.382,0.213 0.159,0.059 0.378,0.084 0.577,0.039 0.202,-0.042 0.361,-0.138 0.478,-0.231 0.118,-0.094 0.2,-0.189 0.27,-0.28 l 0.036,-0.048 c 0.233,-0.303 0.175,-0.737 -0.127,-0.969 -0.303,-0.233 -0.738,-0.176 -0.97,0.127 -0.017,0.021 -0.034,0.047 -0.047,0.069 -0.035,0.059 -0.055,0.033 0.07,-0.002 0.058,-0.013 0.127,-0.001 0.151,0.009 0.028,0.012 0.021,0.014 0.006,0.003 -0.081,-0.052 -0.241,-0.259 -0.359,-0.469 -0.124,-0.214 -0.239,-0.455 -0.339,-0.699 -0.1,-0.238 -0.181,-0.489 -0.255,-0.746 -0.143,-0.512 -0.229,-1.035 -0.245,-1.558 -0.019,-0.52 0.042,-1.045 0.159,-1.569 0.456,-2.108 1.895,-3.926 3.575,-5.398 1.697,-1.483 3.685,-2.65 5.623,-3.922 C -2.724,4.019 -2.231,3.679 -1.77,3.358 -1.294,3.04 -0.799,2.713 -0.338,2.33 -0.107,2.139 0.116,1.931 0.323,1.698 0.527,1.463 0.722,1.199 0.837,0.864 0.893,0.698 0.923,0.511 0.909,0.322 0.894,0.135 0.83,-0.057 0.743,-0.206 0.694,-0.291 0.641,-0.366 0.563,-0.446 0.485,-0.523 0.373,-0.599 0.234,-0.627 c -0.139,-0.03 -0.279,-0.002 -0.384,0.044 -0.11,0.051 -0.185,0.103 -0.272,0.192 -0.112,0.113 -0.11,0.295 0.003,0.407 0.113,0.112 0.295,0.11 0.407,-0.003 C -0.01,0.01 -0.007,0.008 -0.005,0.006 L 0,0 z"
         style="fill:#b9bebf;fill-opacity:1;fill-rule:nonzero;stroke:none"
         id="path286"
         inkscape:connector-curvature="0" /></g><g
       id="g288"
       transform="matrix(5,0,0,5,317.608,-8.1175)"><path
         d="M 0,0 -0.907,0.413 -0.542,-0.509 0,0 z"
         style="fill:#ffffff;fill-opacity:1;fill-rule:nonzero;stroke:none"
         id="path290"
         inkscape:connector-curvature="0" /></g><g
       id="g292"
       transform="matrix(5,0,0,5,168.258,-25.371)"><path
         d="m 0,0 -0.39,0.196 -0.309,-0.605 0.352,-0.176 C -0.13,-0.694 0.157,-0.828 0.305,-0.539 0.442,-0.273 0.218,-0.109 0,0"
         style="fill:#ffffff;fill-opacity:1;fill-rule:nonzero;stroke:none"
         id="path294"
         inkscape:connector-curvature="0" /></g><g
       id="g296"
       transform="matrix(5,0,0,5,157.5755,-21.234)"><path
         d="M 0,0 C 0.136,0.208 -0.03,0.391 -0.206,0.504 L -0.587,0.75 -0.936,0.217 -0.53,-0.045 C -0.358,-0.155 -0.132,-0.201 0,0"
         style="fill:#ffffff;fill-opacity:1;fill-rule:nonzero;stroke:none"
         id="path298"
         inkscape:connector-curvature="0" /></g><g
       id="g300"
       transform="matrix(5,0,0,5,359.131,37.3255)"><path
         d="m 0,0 c -0.299,0.26 -5.09,2.405 -5.09,2.405 0.095,-0.385 0.005,-0.611 -0.03,-0.697 -3.495,-8.575 -11.91,-14.622 -21.742,-14.622 -9.771,0 -18.144,5.972 -21.678,14.464 -0.096,0.23 -0.179,0.509 -0.144,0.754 0,0 -4.82,-2.194 -4.971,-2.345 -0.15,-0.15 -0.309,-0.624 -0.23,-0.826 4.204,-10.819 14.718,-18.488 27.023,-18.488 12.363,0 22.918,7.742 27.082,18.642 C 0.242,-0.656 0.365,-0.317 0,0"
         style="fill:#ffffff;fill-opacity:1;fill-rule:nonzero;stroke:none"
         id="path302"
         inkscape:connector-curvature="0" /></g><g
       id="g304"
       transform="matrix(5,0,0,5,321.8885,5.457)"><path
         d="M 0,0 -0.284,-0.334 0.235,-0.767 0.49,-0.466 C 0.648,-0.279 0.847,-0.031 0.599,0.176 0.371,0.367 0.158,0.187 0,0"
         style="fill:#ffffff;fill-opacity:1;fill-rule:nonzero;stroke:none"
         id="path306"
         inkscape:connector-curvature="0" /></g><g
       id="g308"
       transform="matrix(5,0,0,5,365.486,55.894)"><path
         d="m 0,0 c -0.026,-0.019 -0.055,-0.027 -0.084,-0.027 -0.043,0 -0.085,0.019 -0.113,0.056 C -0.243,0.091 -0.23,0.178 -0.168,0.225 -0.161,0.23 0.061,0.406 0.403,0.91 0.425,1.044 0.445,1.179 0.464,1.314 0.251,1.052 0.119,0.951 0.109,0.943 0.084,0.924 0.055,0.915 0.026,0.915 c -0.043,0 -0.085,0.02 -0.113,0.057 -0.047,0.062 -0.033,0.15 0.028,0.196 0.007,0.005 0.238,0.189 0.593,0.717 0.015,0.146 0.028,0.294 0.04,0.441 C 0.272,1.912 0.078,1.763 0.065,1.754 0.039,1.736 0.011,1.727 -0.019,1.727 c -0.043,0 -0.085,0.019 -0.112,0.056 -0.046,0.062 -0.034,0.15 0.028,0.196 0.007,0.006 0.292,0.231 0.714,0.905 0.01,0.176 0.016,0.351 0.02,0.525 C 0.285,2.787 0.039,2.566 0.026,2.554 -0.002,2.531 -0.034,2.52 -0.067,2.52 c -0.039,0 -0.078,0.016 -0.106,0.048 -0.05,0.058 -0.045,0.146 0.014,0.197 C -0.15,2.774 0.192,3.092 0.636,4.036 0.627,4.338 0.56,5.014 0.56,5.014 0.56,5.014 0.537,4.907 0.467,4.731 0.303,4.317 -0.117,3.521 -1.084,2.838 -1.869,2.284 -2.826,1.866 -4.363,1.681 -5.941,1.49 -8.185,1.431 -9.327,0.151 c -0.251,-0.282 -0.47,-0.648 -0.577,-1.011 -0.083,-0.284 -0.045,-0.837 0.341,-0.924 0.423,-0.094 0.899,0.175 1.221,0.459 0.764,0.674 1.429,0.727 2.326,0.336 0.843,-0.368 1.87,-0.814 2.716,-1.174 0.464,-0.198 0.931,-0.447 1.402,-0.509 0.401,-0.052 0.824,0.12 1.179,0.518 0.248,0.277 0.434,0.599 0.576,0.942 C 0,-0.866 0.109,-0.508 0.195,-0.144 0.229,0 0.26,0.147 0.289,0.294 0.116,0.089 0.008,0.007 0,0"
         style="fill:#ffffff;fill-opacity:1;fill-rule:nonzero;stroke:none"
         id="path310"
         inkscape:connector-curvature="0" /></g><g
       id="g312"
       transform="matrix(5,0,0,5,326.936,37.4)"><path
         d="m 0,0 c 0,0 -0.719,0.215 -1.701,1.313 0.443,0.05 1.003,0.335 1.429,0.748 C 0.158,2.476 0.594,2.654 0.909,2.44 1.275,2.193 0.648,1.176 0.451,0.807 0.254,0.438 0,0 0,0"
         style="fill:#b9bebf;fill-opacity:1;fill-rule:nonzero;stroke:none"
         id="path314"
         inkscape:connector-curvature="0" /></g><g
       id="g316"
       transform="matrix(5,0,0,5,133.7725,51.352)"><path
         d="m 0,0 c -0.106,0.363 -0.326,0.729 -0.577,1.011 -1.142,1.28 -3.386,1.339 -4.964,1.529 -1.537,0.186 -2.494,0.604 -3.279,1.158 -0.966,0.682 -1.386,1.479 -1.551,1.893 -0.07,0.176 -0.093,0.283 -0.093,0.283 0,0 -0.05,-0.509 -0.069,-0.841 0.368,-0.706 0.634,-0.949 0.638,-0.952 0.057,-0.052 0.063,-0.14 0.012,-0.198 -0.028,-0.031 -0.067,-0.048 -0.105,-0.048 -0.033,0 -0.066,0.012 -0.092,0.035 -0.012,0.01 -0.192,0.171 -0.458,0.603 0.002,-0.163 0.006,-0.326 0.013,-0.49 0.345,-0.51 0.57,-0.686 0.573,-0.688 0.062,-0.047 0.074,-0.135 0.028,-0.196 -0.028,-0.037 -0.07,-0.057 -0.113,-0.057 -0.029,0 -0.058,0.01 -0.083,0.028 -0.011,0.008 -0.152,0.116 -0.378,0.4 0.01,-0.15 0.022,-0.3 0.035,-0.451 0.285,-0.393 0.464,-0.534 0.467,-0.536 0.061,-0.047 0.074,-0.134 0.027,-0.196 -0.027,-0.037 -0.069,-0.056 -0.112,-0.056 -0.028,0 -0.058,0.009 -0.083,0.028 -0.008,0.006 -0.097,0.074 -0.245,0.24 0.017,-0.142 0.036,-0.283 0.056,-0.424 0.285,-0.393 0.464,-0.533 0.466,-0.535 0.062,-0.047 0.074,-0.134 0.028,-0.196 -0.028,-0.036 -0.07,-0.056 -0.113,-0.056 -0.028,0 -0.058,0.009 -0.083,0.028 -0.008,0.005 -0.082,0.063 -0.207,0.199 0.048,-0.27 0.102,-0.537 0.163,-0.799 0.086,-0.364 0.195,-0.722 0.338,-1.068 0.142,-0.343 0.328,-0.665 0.576,-0.942 0.354,-0.398 0.779,-0.571 1.179,-0.517 0.47,0.061 0.938,0.31 1.402,0.508 0.846,0.36 1.874,0.806 2.716,1.174 0.897,0.391 1.562,0.338 2.326,-0.336 0.321,-0.284 0.798,-0.553 1.221,-0.459 C 0.044,-0.837 0.083,-0.283 0,0"
         style="fill:#ffffff;fill-opacity:1;fill-rule:nonzero;stroke:none"
         id="path318"
         inkscape:connector-curvature="0" /></g><g
       id="g320"
       transform="matrix(5,0,0,5,83.1155,82.3485)"><path
         d="m 0,0 c 0,0 0.07,-0.63 0.448,-1.155 0.263,-0.365 0.731,-0.778 0.731,-0.778 0,0 -0.327,1.429 -0.093,2.457 C 0.525,0.478 0.238,0.307 0,0"
         style="fill:#b9bebf;fill-opacity:1;fill-rule:nonzero;stroke:none"
         id="path322"
         inkscape:connector-curvature="0" /></g><g
       id="g324"
       transform="matrix(5,0,0,5,366.6635,82.3485)"><path
         d="m 0,0 c 0,0 -0.07,-0.63 -0.448,-1.155 -0.263,-0.365 -0.731,-0.778 -0.731,-0.778 0,0 0.327,1.429 0.093,2.457 C -0.525,0.478 -0.238,0.307 0,0"
         style="fill:#b9bebf;fill-opacity:1;fill-rule:nonzero;stroke:none"
         id="path326"
         inkscape:connector-curvature="0" /></g><g
       id="g328"
       transform="matrix(5,0,0,5,122.802,37.1575)"><path
         d="M 0,0 C 0,0 0.72,0.215 1.701,1.313 1.258,1.363 0.698,1.648 0.272,2.061 -0.157,2.477 -0.594,2.654 -0.909,2.44 -1.274,2.193 -0.648,1.176 -0.451,0.807 -0.254,0.438 0,0 0,0"
         style="fill:#b9bebf;fill-opacity:1;fill-rule:nonzero;stroke:none"
         id="path330"
         inkscape:connector-curvature="0" /></g><g
       id="g332"
       transform="matrix(5,0,0,5,222.6135,-61.336)"><path
         d="m 0,0 -0.429,-2.49 0.732,-0.571 0.672,0.578 -0.341,2.476 C 0.588,-0.008 0.542,-0.01 0.495,-0.01 0.329,-0.01 0.165,-0.003 0,0"
         style="fill:#b9bebf;fill-opacity:1;fill-rule:nonzero;stroke:none"
         id="path334"
         inkscape:connector-curvature="0" /></g><g
       id="g336"
       transform="matrix(5,0,0,5,230.056,-73.739)"><path
         d="M 0,0 C 0.287,0.026 0.57,0.064 0.85,0.112 L 0.243,2.498 C 0.021,2.489 -0.202,2.486 -0.426,2.482 L 0,0 z"
         style="fill:#b9bebf;fill-opacity:1;fill-rule:nonzero;stroke:none"
         id="path338"
         inkscape:connector-curvature="0" /></g><g
       id="g340"
       transform="matrix(5,0,0,5,236.4635,-72.6885)"><path
         d="M 0,0 C 0.263,0.057 0.522,0.123 0.778,0.198 L -0.023,2.347 C -0.234,2.331 -0.446,2.322 -0.658,2.311 L 0,0 z"
         style="fill:#b9bebf;fill-opacity:1;fill-rule:nonzero;stroke:none"
         id="path342"
         inkscape:connector-curvature="0" /></g><g
       id="g344"
       transform="matrix(5,0,0,5,214.257,-73.093)"><path
         d="M 0,0 C 0.262,-0.052 0.528,-0.093 0.797,-0.126 L 1.276,2.359 C 1.053,2.366 0.83,2.376 0.608,2.388 L 0,0 z"
         style="fill:#b9bebf;fill-opacity:1;fill-rule:nonzero;stroke:none"
         id="path346"
         inkscape:connector-curvature="0" /></g><g
       id="g348"
       transform="matrix(5,0,0,5,208.5415,-71.6365)"><path
         d="M 0,0 C 0.244,-0.077 0.493,-0.143 0.744,-0.202 L 1.401,2.117 C 1.193,2.131 0.985,2.145 0.778,2.163 L 0,0 z"
         style="fill:#b9bebf;fill-opacity:1;fill-rule:nonzero;stroke:none"
         id="path350"
         inkscape:connector-curvature="0" /></g><g
       id="g352"
       transform="matrix(5,0,0,5,158.031,139.2675)"><path
         d="M 0,0 C 0.225,-0.118 0.412,-0.301 0.536,-0.526 0.627,-0.692 0.684,-0.88 0.716,-1.066 0.741,-1.212 0.755,-1.361 0.76,-1.509 0.777,-1.992 0.688,-2.486 0.473,-2.953 0.261,-3.411 -0.05,-3.792 -0.419,-4.088 c -0.138,-0.111 -0.284,-0.214 -0.438,-0.303 -0.307,-0.177 -0.652,-0.284 -1.009,-0.227 -0.279,0.044 -0.626,0.196 -0.69,0.502 -0.017,0.079 0,0.182 0.034,0.255 0.055,0.119 0.16,0.197 0.279,0.223 0.087,0.021 0.177,0.017 0.264,-0.024 0.117,-0.054 0.195,-0.158 0.225,-0.277 0.466,-0.132 0.974,0.089 1.185,0.546 0.124,0.267 0.119,0.559 0.016,0.809 -0.02,0.047 -0.042,0.093 -0.069,0.138 0.04,0.005 0.075,0.014 0.112,0.024 0.275,0.076 0.514,0.269 0.642,0.547 0.208,0.449 0.058,0.969 -0.33,1.246 -0.113,-0.074 -0.262,-0.093 -0.394,-0.032 -0.098,0.046 -0.166,0.125 -0.206,0.217 -0.043,0.101 -0.043,0.22 0.006,0.326 0.118,0.255 0.422,0.267 0.646,0.183 C -0.096,0.047 -0.047,0.025 0,0"
         style="fill:#b9bebf;fill-opacity:1;fill-rule:nonzero;stroke:none"
         id="path354"
         inkscape:connector-curvature="0" /></g><g
       id="g356"
       transform="matrix(5,0,0,5,186.2345,166.0375)"><path
         d="m 0,0 c 0.143,-0.21 0.221,-0.46 0.224,-0.716 0.002,-0.19 -0.037,-0.382 -0.097,-0.562 -0.046,-0.14 -0.105,-0.278 -0.171,-0.411 -0.213,-0.433 -0.524,-0.827 -0.935,-1.136 -0.403,-0.304 -0.857,-0.492 -1.322,-0.579 -0.175,-0.032 -0.352,-0.055 -0.53,-0.06 -0.355,-0.011 -0.709,0.058 -0.996,0.276 -0.225,0.171 -0.459,0.469 -0.371,0.77 0.023,0.077 0.086,0.16 0.151,0.208 0.105,0.079 0.233,0.099 0.352,0.065 0.086,-0.022 0.163,-0.069 0.22,-0.146 0.078,-0.103 0.098,-0.232 0.067,-0.351 0.348,-0.336 0.901,-0.381 1.303,-0.079 0.234,0.177 0.368,0.437 0.396,0.706 0.004,0.051 0.007,0.101 0.005,0.153 0.037,-0.014 0.073,-0.022 0.109,-0.031 0.279,-0.063 0.581,-0.006 0.825,0.178 0.396,0.298 0.509,0.827 0.298,1.254 -0.134,-0.011 -0.274,0.042 -0.362,0.159 -0.064,0.086 -0.087,0.188 -0.079,0.288 0.01,0.109 0.066,0.214 0.16,0.285 C -0.53,0.44 -0.255,0.306 -0.098,0.127 -0.063,0.087 -0.03,0.044 0,0"
         style="fill:#b9bebf;fill-opacity:1;fill-rule:nonzero;stroke:none"
         id="path358"
         inkscape:connector-curvature="0" /></g><g
       id="g360"
       transform="matrix(5,0,0,5,292.697,139.2675)"><path
         d="m 0,0 c -0.226,-0.118 -0.413,-0.301 -0.536,-0.526 -0.091,-0.166 -0.148,-0.354 -0.18,-0.54 -0.025,-0.146 -0.039,-0.295 -0.044,-0.443 -0.017,-0.483 0.071,-0.977 0.287,-1.444 0.212,-0.458 0.523,-0.839 0.891,-1.135 0.139,-0.111 0.285,-0.214 0.439,-0.303 0.307,-0.177 0.652,-0.284 1.009,-0.227 0.279,0.044 0.625,0.196 0.69,0.502 0.017,0.079 0,0.182 -0.034,0.255 -0.055,0.119 -0.16,0.197 -0.28,0.223 C 2.156,-3.617 2.066,-3.621 1.979,-3.662 1.862,-3.716 1.784,-3.82 1.754,-3.939 1.289,-4.071 0.78,-3.85 0.569,-3.393 0.445,-3.126 0.45,-2.834 0.553,-2.584 c 0.021,0.047 0.042,0.093 0.069,0.138 -0.04,0.005 -0.075,0.014 -0.112,0.024 -0.275,0.076 -0.514,0.269 -0.642,0.547 -0.208,0.449 -0.058,0.969 0.33,1.246 0.113,-0.074 0.262,-0.093 0.394,-0.032 0.097,0.046 0.166,0.125 0.206,0.217 0.043,0.101 0.043,0.22 -0.006,0.326 C 0.674,0.137 0.37,0.149 0.146,0.065 0.096,0.047 0.047,0.025 0,0"
         style="fill:#b9bebf;fill-opacity:1;fill-rule:nonzero;stroke:none"
         id="path362"
         inkscape:connector-curvature="0" /></g><g
       id="g364"
       transform="matrix(5,0,0,5,264.4925,166.0375)"><path
         d="m 0,0 c -0.143,-0.21 -0.222,-0.46 -0.224,-0.716 -0.002,-0.19 0.037,-0.382 0.097,-0.562 0.047,-0.14 0.105,-0.278 0.171,-0.411 0.213,-0.433 0.525,-0.827 0.935,-1.136 0.403,-0.304 0.857,-0.492 1.322,-0.579 0.175,-0.032 0.352,-0.055 0.53,-0.06 0.355,-0.011 0.709,0.058 0.996,0.276 0.225,0.171 0.459,0.469 0.371,0.77 C 4.175,-2.341 4.112,-2.258 4.047,-2.21 3.942,-2.131 3.813,-2.111 3.696,-2.145 3.609,-2.167 3.532,-2.214 3.475,-2.291 3.397,-2.394 3.377,-2.523 3.408,-2.642 3.059,-2.978 2.507,-3.023 2.105,-2.721 1.871,-2.544 1.737,-2.284 1.709,-2.015 1.705,-1.964 1.701,-1.914 1.704,-1.862 1.667,-1.876 1.631,-1.884 1.595,-1.893 1.316,-1.956 1.014,-1.899 0.77,-1.715 c -0.396,0.298 -0.509,0.827 -0.298,1.254 0.134,-0.011 0.275,0.042 0.362,0.159 0.064,0.086 0.087,0.188 0.079,0.288 C 0.903,0.095 0.847,0.2 0.753,0.271 0.53,0.44 0.255,0.306 0.098,0.127 0.063,0.087 0.03,0.044 0,0"
         style="fill:#b9bebf;fill-opacity:1;fill-rule:nonzero;stroke:none"
         id="path366"
         inkscape:connector-curvature="0" /></g><g
       id="g368"
       transform="matrix(5,0,0,5,116.688,24.0095)"><path
         d="m 0,0 c 0.089,0.014 0.148,0.017 0.178,0.009 0.03,-0.008 0.059,-0.04 0.087,-0.095 l 0.256,-0.503 c 0.013,-0.025 0.013,-0.051 0,-0.079 C 0.508,-0.696 0.483,-0.719 0.446,-0.739 0.407,-0.758 0.376,-0.764 0.353,-0.755 0.329,-0.747 0.301,-0.729 0.268,-0.701 0.239,-0.674 0.21,-0.661 0.181,-0.664 0.152,-0.666 0.113,-0.68 0.063,-0.706 L -1.558,-1.532 C -1.652,-1.58 -1.704,-1.627 -1.714,-1.672 L -1.719,-1.715 C -1.732,-1.772 -1.756,-1.811 -1.793,-1.829 -1.87,-1.868 -1.93,-1.844 -1.975,-1.756 l -0.261,0.511 c -0.043,0.085 -0.027,0.147 0.05,0.187 0.028,0.014 0.05,0.019 0.067,0.016 0.017,-0.003 0.04,-0.011 0.07,-0.025 l 0.037,-0.019 c 0.042,-0.02 0.11,-0.005 0.205,0.043 l 1.456,0.742 -1.568,-0.251 c -0.083,-0.011 -0.136,-0.018 -0.161,-0.019 -0.024,-0.001 -0.048,0.005 -0.074,0.02 -0.025,0.014 -0.049,0.044 -0.071,0.087 -0.033,0.064 -0.048,0.112 -0.045,0.143 0.002,0.032 0.028,0.075 0.078,0.13 L -1.057,0.986 -2.479,0.262 C -2.527,0.23 -2.561,0.205 -2.58,0.189 -2.596,0.172 -2.607,0.156 -2.612,0.14 -2.618,0.124 -2.62,0.108 -2.62,0.091 c 0,-0.017 0,-0.034 -10e-4,-0.051 0.002,-0.058 -0.022,-0.101 -0.073,-0.126 -0.07,-0.036 -0.136,0.007 -0.199,0.131 L -3.012,0.278 C -3.074,0.399 -3.069,0.477 -3,0.512 c 0.053,0.027 0.101,0.024 0.144,-0.009 0.033,-0.025 0.057,-0.042 0.073,-0.051 0.017,-0.009 0.04,-0.01 0.071,-0.004 0.025,0.005 0.064,0.018 0.119,0.038 l 1.608,0.82 c 0.03,0.015 0.052,0.03 0.068,0.046 0.054,0.047 0.076,0.103 0.067,0.168 -0.004,0.043 -0.002,0.076 0.004,0.1 0.007,0.023 0.028,0.044 0.065,0.062 0.077,0.039 0.141,0.007 0.194,-0.096 L -0.32,1.062 C -0.292,1.006 -0.289,0.96 -0.313,0.924 -0.337,0.888 -0.389,0.833 -0.47,0.759 L -1.481,-0.228 0,0 z"
         style="fill:#0e1e2d;fill-opacity:1;fill-rule:nonzero;stroke:none"
         id="path370"
         inkscape:connector-curvature="0" /></g><g
       id="g372"
       transform="matrix(5,0,0,5,113.835,10.662)"><path
         d="m 0,0 c -0.115,-0.077 -0.189,-0.138 -0.223,-0.183 -0.034,-0.044 -0.042,-0.095 -0.024,-0.152 0.019,-0.057 0.068,-0.147 0.148,-0.269 0.059,-0.086 0.114,-0.148 0.166,-0.186 0.052,-0.038 0.128,-0.06 0.228,-0.066 0.072,0 0.129,-0.002 0.17,-0.006 0.041,-0.004 0.071,-0.022 0.091,-0.051 0.016,-0.023 0.02,-0.051 0.012,-0.083 C 0.56,-1.028 0.542,-1.053 0.515,-1.072 0.459,-1.11 0.352,-1.156 0.193,-1.212 0.119,-1.239 0.067,-1.249 0.039,-1.241 c -0.028,0.008 -0.062,0.04 -0.1,0.097 l -0.827,1.225 c -0.055,0.082 -0.047,0.147 0.025,0.196 0.025,0.017 0.047,0.025 0.063,0.023 0.017,-0.002 0.042,-0.009 0.076,-0.02 l 0.039,-0.015 c 0.044,-0.013 0.11,0.01 0.198,0.069 L 1.005,1.34 c 0.092,0.062 0.14,0.117 0.144,0.163 L 1.145,1.541 C 1.149,1.604 1.169,1.648 1.206,1.672 1.242,1.697 1.277,1.703 1.312,1.689 1.346,1.676 1.374,1.654 1.396,1.622 L 2.183,0.454 C 2.231,0.383 2.249,0.327 2.237,0.287 2.213,0.231 2.123,0.15 1.969,0.046 1.88,-0.014 1.815,-0.014 1.775,0.046 1.753,0.079 1.757,0.138 1.789,0.223 1.826,0.317 1.834,0.398 1.811,0.465 1.793,0.53 1.745,0.62 1.669,0.733 1.595,0.842 1.54,0.905 1.502,0.923 c -0.044,0.03 -0.089,0.03 -0.134,0 L 0.792,0.534 1.046,0.157 C 1.08,0.107 1.11,0.077 1.136,0.066 1.162,0.055 1.195,0.046 1.235,0.041 1.274,0.035 1.301,0.021 1.316,0 1.356,-0.06 1.305,-0.138 1.162,-0.235 1.076,-0.293 1.007,-0.331 0.955,-0.35 0.904,-0.367 0.866,-0.358 0.841,-0.321 0.825,-0.298 0.822,-0.267 0.83,-0.227 c 0.008,0.04 0.012,0.073 0.011,0.099 0,0.026 -0.017,0.063 -0.05,0.113 L 0.536,0.362 0,0 z"
         style="fill:#0e1e2d;fill-opacity:1;fill-rule:nonzero;stroke:none"
         id="path374"
         inkscape:connector-curvature="0" /></g><g
       id="g376"
       transform="matrix(5,0,0,5,130.4035,2.111)"><path
         d="M 0,0 C 0.016,0.014 0.044,0.043 0.084,0.09 0.109,0.134 0.111,0.187 0.088,0.248 0.08,0.307 0.097,0.354 0.139,0.389 0.198,0.439 0.273,0.411 0.362,0.306 l 0.169,-0.2 C 0.618,0.002 0.632,-0.075 0.572,-0.125 0.53,-0.161 0.481,-0.17 0.426,-0.152 0.368,-0.12 0.317,-0.114 0.272,-0.134 0.251,-0.141 0.215,-0.162 0.166,-0.196 l -1.559,-1.316 c -0.086,-0.073 -0.148,-0.111 -0.186,-0.116 -0.037,-0.005 -0.084,0.026 -0.141,0.093 -0.047,0.055 -0.066,0.105 -0.057,0.151 0.009,0.042 0.061,0.184 0.159,0.426 l 0.629,1.766 -1.206,-1.018 c -0.04,-0.042 -0.067,-0.074 -0.081,-0.094 -0.013,-0.02 -0.02,-0.038 -0.021,-0.055 -0.002,-0.016 -10e-4,-0.033 0.003,-0.05 0.005,-0.016 0.008,-0.033 0.011,-0.049 0.015,-0.057 10e-4,-0.104 -0.043,-0.14 -0.059,-0.051 -0.134,-0.023 -0.223,0.083 l -0.169,0.2 c -0.087,0.103 -0.101,0.18 -0.041,0.23 0.045,0.038 0.093,0.046 0.142,0.024 0.037,-0.017 0.065,-0.028 0.083,-0.033 0.018,-0.004 0.041,-0.001 0.07,0.012 0.023,0.011 0.058,0.032 0.107,0.065 l 1.271,1.073 c 0.03,0.026 0.061,0.052 0.091,0.078 0.031,0.027 0.055,0.052 0.074,0.078 0.018,0.025 0.031,0.051 0.036,0.079 0.006,0.027 0.002,0.059 -0.01,0.094 -0.013,0.042 -0.019,0.075 -0.019,0.099 0.001,0.024 0.017,0.049 0.049,0.075 0.066,0.056 0.136,0.04 0.211,-0.049 L -0.39,1.196 C -0.351,1.151 -0.329,1.118 -0.323,1.097 -0.316,1.077 -0.32,1.035 -0.332,0.974 -0.352,0.887 -0.38,0.79 -0.416,0.68 -0.451,0.571 -0.487,0.468 -0.521,0.371 -0.556,0.273 -0.605,0.139 -0.667,-0.033 L -0.952,-0.803 0,0 z"
         style="fill:#0e1e2d;fill-opacity:1;fill-rule:nonzero;stroke:none"
         id="path378"
         inkscape:connector-curvature="0" /></g><g
       id="g380"
       transform="matrix(5,0,0,5,135.553,-7.191)"><path
         d="m 0,0 c 0.105,-0.189 0.159,-0.346 0.159,-0.47 0.003,-0.207 -0.075,-0.392 -0.232,-0.555 -0.204,-0.214 -0.441,-0.32 -0.708,-0.319 -0.247,0.003 -0.467,0.098 -0.661,0.284 -0.154,0.148 -0.26,0.315 -0.319,0.502 -0.026,0.106 -0.033,0.218 -0.022,0.338 0.011,0.118 0.051,0.214 0.12,0.286 0.038,0.04 0.082,0.065 0.132,0.076 0.051,0.011 0.091,0.001 0.121,-0.027 0.048,-0.046 0.055,-0.119 0.022,-0.219 -0.005,-0.022 -0.013,-0.055 -0.025,-0.098 -0.011,-0.043 -0.019,-0.076 -0.023,-0.098 -0.004,-0.023 -0.007,-0.048 -0.008,-0.077 -0.001,-0.029 -0.001,-0.057 0.002,-0.084 0.017,-0.142 0.079,-0.264 0.184,-0.365 0.084,-0.081 0.188,-0.127 0.31,-0.139 0.122,-0.012 0.232,0.032 0.329,0.133 0.093,0.098 0.123,0.203 0.089,0.315 -0.02,0.09 -0.082,0.212 -0.185,0.364 -0.118,0.188 -0.186,0.35 -0.204,0.487 -0.02,0.236 0.056,0.442 0.226,0.621 0.089,0.091 0.194,0.163 0.315,0.215 0.122,0.052 0.242,0.077 0.36,0.075 C 0.195,1.241 0.391,1.153 0.571,0.98 0.747,0.811 0.862,0.61 0.916,0.375 0.926,0.319 0.919,0.274 0.896,0.24 0.868,0.188 0.796,0.101 0.68,-0.021 0.608,-0.095 0.545,-0.106 0.49,-0.054 0.467,-0.031 0.462,0.009 0.478,0.067 0.493,0.124 0.513,0.195 0.538,0.28 0.562,0.365 0.566,0.449 0.551,0.531 0.536,0.613 0.487,0.693 0.406,0.771 0.336,0.839 0.251,0.876 0.151,0.882 0.05,0.889 -0.039,0.851 -0.118,0.769 -0.2,0.683 -0.236,0.598 -0.225,0.513 -0.215,0.428 -0.179,0.33 -0.12,0.217 L 0,0 z"
         style="fill:#0e1e2d;fill-opacity:1;fill-rule:nonzero;stroke:none"
         id="path382"
         inkscape:connector-curvature="0" /></g><g
       id="g384"
       transform="matrix(5,0,0,5,150.0635,-18.8505)"><path
         d="m 0,0 c 0.133,-0.171 0.209,-0.317 0.229,-0.44 0.033,-0.204 -0.015,-0.399 -0.145,-0.584 -0.17,-0.242 -0.388,-0.383 -0.653,-0.422 -0.244,-0.035 -0.476,0.026 -0.696,0.18 -0.174,0.123 -0.305,0.272 -0.391,0.448 -0.042,0.101 -0.066,0.211 -0.073,0.33 -0.007,0.119 0.018,0.22 0.075,0.301 0.032,0.045 0.072,0.077 0.12,0.095 0.048,0.019 0.089,0.016 0.123,-0.008 0.054,-0.038 0.073,-0.11 0.055,-0.213 -0.002,-0.023 -0.005,-0.056 -0.01,-0.1 -0.005,-0.045 -0.007,-0.078 -0.008,-0.101 -10e-4,-0.023 0,-0.049 0.004,-0.077 0.003,-0.029 0.008,-0.057 0.014,-0.083 0.039,-0.138 0.118,-0.249 0.238,-0.333 0.095,-0.067 0.205,-0.097 0.327,-0.09 0.123,0.007 0.225,0.067 0.305,0.181 0.078,0.111 0.091,0.219 0.04,0.325 -0.033,0.086 -0.113,0.197 -0.237,0.332 -0.146,0.167 -0.237,0.317 -0.276,0.45 -0.055,0.23 -0.012,0.446 0.13,0.648 0.073,0.104 0.166,0.191 0.278,0.261 0.113,0.07 0.228,0.112 0.345,0.128 C 0.005,1.256 0.212,1.199 0.416,1.055 0.615,0.915 0.76,0.734 0.849,0.511 0.866,0.456 0.867,0.41 0.85,0.374 0.83,0.318 0.772,0.221 0.675,0.083 0.615,-0.002 0.555,-0.022 0.493,0.022 0.466,0.04 0.456,0.079 0.462,0.138 0.469,0.198 0.478,0.271 0.489,0.359 0.5,0.446 0.492,0.53 0.464,0.609 0.436,0.688 0.377,0.76 0.284,0.824 0.205,0.88 0.115,0.904 0.015,0.895 -0.085,0.886 -0.168,0.836 -0.233,0.743 -0.302,0.646 -0.324,0.556 -0.301,0.473 -0.277,0.391 -0.227,0.299 -0.151,0.196 L 0,0 z"
         style="fill:#0e1e2d;fill-opacity:1;fill-rule:nonzero;stroke:none"
         id="path386"
         inkscape:connector-curvature="0" /></g><g
       id="g388"
       transform="matrix(5,0,0,5,158.801,-27.23)"><path
         d="M 0,0 0.015,0.055 0.2,1.033 -0.589,0.334 0,0 z m -1.564,-0.495 c -0.064,0.036 -0.107,0.07 -0.128,0.101 -0.021,0.032 -0.019,0.07 0.007,0.116 0.017,0.029 0.052,0.052 0.107,0.068 0.054,0.006 0.101,0.027 0.141,0.061 l 0.302,0.31 c 0.207,0.215 0.544,0.522 1.011,0.921 C 0.023,1.212 0.181,1.34 0.349,1.466 0.401,1.503 0.442,1.521 0.474,1.519 0.506,1.517 0.548,1.501 0.602,1.471 0.674,1.43 0.717,1.389 0.731,1.348 0.746,1.307 0.745,1.237 0.727,1.139 L 0.373,-0.736 0.272,-1.125 C 0.265,-1.159 0.262,-1.182 0.264,-1.196 0.266,-1.21 0.274,-1.237 0.288,-1.276 0.31,-1.318 0.31,-1.359 0.288,-1.397 0.246,-1.472 0.18,-1.484 0.091,-1.434 l -0.443,0.252 c -0.109,0.061 -0.143,0.128 -0.102,0.2 0.02,0.036 0.057,0.057 0.111,0.06 0.053,0.004 0.086,0.017 0.099,0.04 0.032,0.055 0.081,0.226 0.148,0.511 l 0.017,0.061 -0.734,0.417 c -0.011,-0.013 -0.047,-0.05 -0.11,-0.112 -0.062,-0.062 -0.113,-0.116 -0.153,-0.16 -0.041,-0.045 -0.07,-0.082 -0.086,-0.112 -0.019,-0.032 -0.027,-0.06 -0.025,-0.083 0.002,-0.024 0.009,-0.05 0.023,-0.079 0.013,-0.028 0.021,-0.053 0.026,-0.074 0.003,-0.021 -0.002,-0.045 -0.018,-0.072 -0.024,-0.044 -0.057,-0.063 -0.098,-0.058 -0.041,0.005 -0.095,0.026 -0.164,0.066 l -0.146,0.082 z"
         style="fill:#0e1e2d;fill-opacity:1;fill-rule:nonzero;stroke:none"
         id="path390"
         inkscape:connector-curvature="0" /></g><g
       id="g392"
       transform="matrix(5,0,0,5,174.8815,-29.0515)"><path
         d="m 0,0 c 0.008,0.019 0.02,0.059 0.036,0.118 0.003,0.051 -0.019,0.098 -0.066,0.143 -0.032,0.05 -0.038,0.1 -0.016,0.149 0.032,0.071 0.111,0.079 0.238,0.023 L 0.431,0.328 C 0.555,0.273 0.601,0.21 0.569,0.138 0.547,0.088 0.507,0.058 0.449,0.05 0.383,0.054 0.335,0.037 0.303,-0.001 0.287,-0.017 0.264,-0.051 0.235,-0.104 L -0.59,-1.969 c -0.046,-0.103 -0.084,-0.165 -0.116,-0.186 -0.032,-0.021 -0.088,-0.014 -0.168,0.022 -0.066,0.029 -0.105,0.066 -0.117,0.11 -0.011,0.042 -0.026,0.192 -0.044,0.453 L -1.243,0.293 -1.881,-1.15 c -0.018,-0.056 -0.028,-0.096 -0.032,-0.121 -0.002,-0.023 -10e-4,-0.042 0.005,-0.058 0.006,-0.016 0.014,-0.03 0.025,-0.043 0.011,-0.013 0.022,-0.027 0.032,-0.04 0.038,-0.044 0.046,-0.093 0.022,-0.145 -0.031,-0.071 -0.11,-0.079 -0.237,-0.023 l -0.239,0.106 c -0.124,0.054 -0.17,0.118 -0.138,0.189 0.024,0.054 0.063,0.082 0.117,0.083 0.041,0.002 0.071,0.004 0.089,0.008 0.018,0.003 0.038,0.017 0.058,0.041 0.016,0.019 0.038,0.054 0.067,0.105 l 0.673,1.521 c 0.016,0.038 0.032,0.074 0.048,0.111 0.015,0.037 0.026,0.071 0.032,0.102 0.006,0.031 0.005,0.06 -0.002,0.087 -0.007,0.027 -0.024,0.054 -0.051,0.08 -0.03,0.032 -0.05,0.059 -0.059,0.081 -0.01,0.021 -0.006,0.051 0.01,0.089 0.035,0.079 0.105,0.095 0.211,0.048 l 0.376,-0.166 c 0.054,-0.024 0.089,-0.044 0.103,-0.06 0.015,-0.016 0.03,-0.054 0.046,-0.115 0.02,-0.086 0.038,-0.187 0.053,-0.301 0.016,-0.113 0.029,-0.222 0.041,-0.324 0.011,-0.103 0.026,-0.245 0.045,-0.427 L -0.504,-1.139 0,0 z"
         style="fill:#0e1e2d;fill-opacity:1;fill-rule:nonzero;stroke:none"
         id="path394"
         inkscape:connector-curvature="0" /></g><g
       id="g396"
       transform="matrix(5,0,0,5,182.734,-37.622)"><path
         d="M 0,0 0.004,0.057 -0.006,1.052 -0.643,0.212 0,0 z m -1.436,-0.792 c -0.071,0.024 -0.119,0.048 -0.146,0.075 -0.027,0.026 -0.032,0.064 -0.016,0.115 0.011,0.031 0.041,0.06 0.091,0.087 0.053,0.016 0.095,0.045 0.127,0.088 l 0.236,0.362 c 0.16,0.252 0.43,0.619 0.81,1.102 0.119,0.156 0.249,0.312 0.389,0.469 C 0.098,1.553 0.136,1.578 0.167,1.583 0.199,1.587 0.243,1.58 0.301,1.561 0.38,1.535 0.431,1.503 0.453,1.465 0.475,1.428 0.487,1.359 0.489,1.259 L 0.51,-0.648 0.487,-1.049 c 0,-0.035 0.002,-0.059 0.007,-0.072 0.004,-0.013 0.017,-0.038 0.038,-0.073 0.03,-0.038 0.039,-0.077 0.025,-0.119 C 0.53,-1.395 0.468,-1.42 0.371,-1.388 l -0.484,0.16 c -0.119,0.039 -0.166,0.098 -0.14,0.176 0.013,0.04 0.046,0.067 0.097,0.081 0.052,0.014 0.082,0.033 0.09,0.058 0.02,0.061 0.035,0.238 0.044,0.531 l 0.006,0.063 -0.802,0.264 c -0.008,-0.014 -0.037,-0.058 -0.086,-0.131 -0.048,-0.073 -0.088,-0.135 -0.119,-0.187 -0.031,-0.051 -0.052,-0.093 -0.063,-0.126 -0.011,-0.035 -0.014,-0.064 -0.007,-0.087 0.006,-0.023 0.019,-0.047 0.037,-0.072 0.019,-0.026 0.032,-0.049 0.04,-0.068 0.008,-0.02 0.007,-0.044 -0.002,-0.074 -0.016,-0.047 -0.045,-0.073 -0.085,-0.076 -0.041,-0.004 -0.099,0.007 -0.174,0.032 l -0.159,0.052 z"
         style="fill:#0e1e2d;fill-opacity:1;fill-rule:nonzero;stroke:none"
         id="path398"
         inkscape:connector-curvature="0" /></g><g
       id="g400"
       transform="matrix(5,0,0,5,197.65,-36.042)"><path
         d="M 0,0 C 0.023,0.115 0.019,0.187 -0.012,0.217 L -0.037,0.24 c -0.042,0.048 -0.058,0.093 -0.05,0.136 0.017,0.085 0.074,0.117 0.171,0.098 L 0.646,0.363 C 0.685,0.355 0.717,0.338 0.742,0.312 0.767,0.286 0.775,0.251 0.767,0.207 0.758,0.163 0.726,0.127 0.67,0.1 L 0.633,0.089 C 0.592,0.068 0.56,0.002 0.539,-0.107 L 0.189,-1.872 C 0.168,-1.976 0.173,-2.046 0.203,-2.081 L 0.232,-2.112 C 0.273,-2.159 0.29,-2.203 0.282,-2.241 0.265,-2.326 0.208,-2.359 0.111,-2.339 l -0.562,0.111 c -0.097,0.019 -0.137,0.071 -0.12,0.156 0.006,0.03 0.015,0.051 0.028,0.061 0.013,0.01 0.036,0.023 0.068,0.039 l 0.033,0.019 c 0.04,0.015 0.071,0.078 0.092,0.188 L 0,0 z"
         style="fill:#0e1e2d;fill-opacity:1;fill-rule:nonzero;stroke:none"
         id="path402"
         inkscape:connector-curvature="0" /></g><g
       id="g404"
       transform="matrix(5,0,0,5,211.7515,-38.204)"><path
         d="m 0,0 c 0.003,0.021 0.003,0.062 0.001,0.123 -0.012,0.05 -0.047,0.089 -0.105,0.119 -0.045,0.038 -0.065,0.084 -0.058,0.137 0.01,0.078 0.083,0.108 0.22,0.091 L 0.318,0.438 C 0.452,0.421 0.515,0.374 0.505,0.296 0.498,0.242 0.468,0.202 0.416,0.177 0.352,0.162 0.31,0.132 0.29,0.086 0.28,0.067 0.268,0.027 0.255,-0.032 L 0.003,-2.056 c -0.014,-0.112 -0.033,-0.182 -0.057,-0.211 -0.024,-0.029 -0.08,-0.039 -0.167,-0.028 -0.072,0.009 -0.12,0.033 -0.144,0.073 -0.023,0.036 -0.08,0.176 -0.173,0.42 l -0.736,1.724 -0.195,-1.566 c -10e-4,-0.059 0,-0.1 0.004,-0.125 0.004,-0.022 0.012,-0.04 0.022,-0.054 0.01,-0.013 0.022,-0.025 0.036,-0.034 0.014,-0.009 0.028,-0.019 0.041,-0.029 0.05,-0.031 0.071,-0.075 0.064,-0.132 -0.009,-0.078 -0.083,-0.108 -0.22,-0.091 l -0.26,0.033 c -0.134,0.016 -0.196,0.063 -0.187,0.141 0.008,0.059 0.037,0.096 0.089,0.113 0.039,0.014 0.066,0.025 0.083,0.033 0.016,0.009 0.031,0.027 0.043,0.056 0.01,0.023 0.021,0.063 0.035,0.12 l 0.205,1.651 c 0.004,0.04 0.009,0.08 0.014,0.12 0.004,0.04 0.004,0.075 10e-4,0.107 -0.004,0.031 -0.012,0.059 -0.027,0.083 -0.014,0.023 -0.038,0.044 -0.072,0.061 -0.038,0.022 -0.064,0.042 -0.08,0.06 -0.016,0.018 -0.021,0.048 -0.016,0.089 0.011,0.085 0.074,0.121 0.189,0.107 L -1.098,0.614 C -1.039,0.607 -1,0.597 -0.982,0.587 -0.963,0.576 -0.938,0.544 -0.904,0.49 c 0.043,-0.077 0.089,-0.168 0.137,-0.272 0.048,-0.105 0.092,-0.205 0.132,-0.3 0.041,-0.095 0.096,-0.226 0.167,-0.395 L -0.154,-1.236 0,0 z"
         style="fill:#0e1e2d;fill-opacity:1;fill-rule:nonzero;stroke:none"
         id="path406"
         inkscape:connector-curvature="0" /></g><g
       id="g408"
       transform="matrix(5,0,0,5,230.5875,-38.198)"><path
         d="m 0,0 c -0.097,0.092 -0.206,0.138 -0.328,0.135 -0.218,-0.004 -0.39,-0.126 -0.517,-0.366 -0.112,-0.216 -0.165,-0.474 -0.159,-0.774 0.006,-0.297 0.063,-0.55 0.173,-0.761 0.119,-0.24 0.306,-0.358 0.56,-0.353 0.196,0.004 0.367,0.104 0.514,0.3 0.017,0.024 0.035,0.048 0.054,0.073 0.02,0.026 0.04,0.047 0.061,0.064 0.022,0.017 0.044,0.026 0.07,0.026 0.028,10e-4 0.053,-0.012 0.073,-0.038 0.021,-0.027 0.032,-0.058 0.033,-0.095 0.002,-0.08 -0.03,-0.162 -0.095,-0.246 -0.066,-0.083 -0.137,-0.153 -0.212,-0.21 -0.171,-0.135 -0.371,-0.204 -0.6,-0.208 -0.213,-0.004 -0.411,0.049 -0.595,0.161 -0.184,0.112 -0.331,0.272 -0.442,0.48 -0.112,0.208 -0.17,0.447 -0.175,0.716 -0.004,0.205 0.025,0.399 0.088,0.582 0.063,0.183 0.151,0.343 0.264,0.481 0.112,0.137 0.243,0.245 0.392,0.323 0.149,0.079 0.305,0.119 0.467,0.122 C -0.107,0.418 0.129,0.338 0.333,0.173 0.386,0.139 0.42,0.099 0.434,0.052 0.455,-0.015 0.468,-0.152 0.471,-0.361 0.472,-0.404 0.461,-0.44 0.437,-0.468 0.414,-0.496 0.383,-0.51 0.346,-0.511 0.31,-0.512 0.283,-0.497 0.266,-0.469 0.248,-0.44 0.224,-0.391 0.194,-0.323 0.135,-0.17 0.07,-0.063 0,0"
         style="fill:#0e1e2d;fill-opacity:1;fill-rule:nonzero;stroke:none"
         id="path410"
         inkscape:connector-curvature="0" /></g><g
       id="g412"
       transform="matrix(5,0,0,5,244.7795,-42.05)"><path
         d="M 0,0 C -0.022,0.181 -0.062,0.356 -0.121,0.525 -0.179,0.694 -0.261,0.831 -0.366,0.938 -0.471,1.045 -0.598,1.089 -0.745,1.072 -0.958,1.046 -1.103,0.89 -1.182,0.604 -1.237,0.398 -1.248,0.157 -1.216,-0.12 c 0.021,-0.177 0.062,-0.351 0.12,-0.522 0.059,-0.171 0.141,-0.312 0.245,-0.423 0.104,-0.11 0.228,-0.156 0.372,-0.139 0.149,0.018 0.262,0.089 0.341,0.215 0.078,0.125 0.126,0.276 0.144,0.451 C 0.024,-0.363 0.022,-0.183 0,0 m -1.338,-1.184 c -0.254,0.241 -0.405,0.569 -0.455,0.984 -0.024,0.202 -0.016,0.394 0.023,0.576 0.04,0.182 0.106,0.344 0.199,0.486 0.093,0.142 0.207,0.255 0.342,0.34 0.134,0.086 0.282,0.138 0.444,0.157 0.164,0.02 0.322,0.004 0.477,-0.047 C -0.153,1.261 -0.014,1.18 0.111,1.067 0.236,0.954 0.34,0.814 0.422,0.646 0.504,0.479 0.557,0.291 0.582,0.083 0.614,-0.187 0.589,-0.438 0.506,-0.669 0.423,-0.901 0.296,-1.088 0.125,-1.233 c -0.171,-0.144 -0.364,-0.229 -0.58,-0.254 -0.15,-0.018 -0.303,-10e-4 -0.46,0.052 -0.156,0.053 -0.297,0.137 -0.423,0.251"
         style="fill:#0e1e2d;fill-opacity:1;fill-rule:nonzero;stroke:none"
         id="path414"
         inkscape:connector-curvature="0" /></g><g
       id="g416"
       transform="matrix(5,0,0,5,253.5775,-40.139)"><path
         d="M 0,0 C 0.173,0.042 0.32,0.126 0.443,0.25 0.566,0.375 0.606,0.533 0.563,0.725 0.529,0.876 0.465,0.981 0.369,1.038 0.273,1.095 0.163,1.11 0.037,1.082 -0.072,1.058 -0.139,1.018 -0.163,0.962 -0.188,0.919 -0.186,0.835 -0.158,0.711 L 0,0 z M 0.214,-0.937 C 0.237,-1.041 0.269,-1.103 0.311,-1.124 L 0.35,-1.14 C 0.403,-1.165 0.433,-1.198 0.443,-1.239 0.461,-1.324 0.422,-1.377 0.326,-1.398 l -0.56,-0.124 c -0.096,-0.022 -0.154,0.01 -0.173,0.094 -0.006,0.03 -0.006,0.053 0.002,0.067 0.008,0.015 0.023,0.036 0.046,0.063 l 0.023,0.03 c 0.03,0.03 0.033,0.101 0.009,0.21 l -0.39,1.75 c -0.025,0.115 -0.058,0.18 -0.098,0.194 l -0.034,0.018 c -0.033,0.015 -0.056,0.029 -0.069,0.038 -0.013,0.01 -0.023,0.03 -0.029,0.06 -0.019,0.084 0.02,0.137 0.116,0.158 L 0.215,1.399 C 0.431,1.447 0.601,1.449 0.726,1.405 0.819,1.373 0.901,1.314 0.973,1.228 1.046,1.142 1.095,1.041 1.12,0.926 1.187,0.628 1.09,0.358 0.83,0.115 1.023,-0.051 1.226,-0.32 1.439,-0.689 1.478,-0.75 1.508,-0.793 1.529,-0.816 1.551,-0.839 1.584,-0.86 1.629,-0.882 1.663,-0.896 1.686,-0.908 1.698,-0.916 1.71,-0.924 1.719,-0.943 1.726,-0.972 1.742,-1.045 1.698,-1.092 1.596,-1.116 L 1.021,-1.243 C 0.967,-1.255 0.923,-1.258 0.887,-1.251 c -0.036,0.007 -0.059,0.037 -0.071,0.088 -0.008,0.037 0.005,0.077 0.039,0.118 0.035,0.042 0.048,0.08 0.041,0.114 -0.02,0.086 -0.094,0.217 -0.224,0.392 -0.13,0.175 -0.24,0.303 -0.328,0.383 L 0.067,-0.281 0.214,-0.937 z"
         style="fill:#0e1e2d;fill-opacity:1;fill-rule:nonzero;stroke:none"
         id="path418"
         inkscape:connector-curvature="0" /></g><g
       id="g420"
       transform="matrix(5,0,0,5,266.079,-37.463)"><path
         d="M 0,0 C 0.164,0.084 0.293,0.196 0.389,0.334 0.484,0.473 0.501,0.637 0.44,0.827 0.392,0.979 0.315,1.086 0.209,1.147 0.104,1.208 -0.009,1.22 -0.129,1.181 -0.221,1.152 -0.275,1.111 -0.293,1.058 -0.31,1.014 -0.301,0.938 -0.267,0.832 L 0,0 z M 0.262,-0.816 C 0.286,-0.87 0.305,-0.907 0.318,-0.928 0.337,-0.954 0.355,-0.97 0.37,-0.974 0.386,-0.979 0.415,-0.985 0.459,-0.992 0.513,-1.001 0.549,-1.032 0.567,-1.086 0.591,-1.161 0.538,-1.219 0.409,-1.26 l -0.536,-0.172 c -0.094,-0.031 -0.155,-0.005 -0.181,0.077 -0.009,0.029 -0.011,0.05 -0.006,0.064 0.005,0.014 0.018,0.037 0.037,0.069 l 0.025,0.034 c 0.027,0.033 0.024,0.103 -0.011,0.21 L -0.812,0.735 C -0.848,0.847 -0.887,0.908 -0.929,0.919 L -0.966,0.925 C -1.023,0.95 -1.058,0.982 -1.07,1.021 -1.097,1.104 -1.063,1.16 -0.969,1.19 l 0.885,0.284 C 0.143,1.547 0.338,1.562 0.503,1.52 0.618,1.49 0.717,1.433 0.802,1.351 0.887,1.269 0.95,1.161 0.993,1.03 1.044,0.87 1.05,0.716 1.01,0.568 0.971,0.419 0.9,0.285 0.799,0.165 0.715,0.067 0.615,-0.015 0.497,-0.083 0.38,-0.15 0.244,-0.215 0.089,-0.276 l 0.173,-0.54 z"
         style="fill:#0e1e2d;fill-opacity:1;fill-rule:nonzero;stroke:none"
         id="path422"
         inkscape:connector-curvature="0" /></g><g
       id="g424"
       transform="matrix(5,0,0,5,282.446,-30.9745)"><path
         d="M 0,0 C -0.073,0.167 -0.162,0.323 -0.267,0.468 -0.371,0.613 -0.489,0.721 -0.621,0.793 -0.752,0.865 -0.886,0.871 -1.022,0.812 -1.218,0.726 -1.313,0.535 -1.306,0.239 c 0.007,-0.214 0.065,-0.449 0.176,-0.703 0.071,-0.164 0.16,-0.319 0.266,-0.466 0.105,-0.147 0.224,-0.258 0.355,-0.334 0.131,-0.076 0.263,-0.085 0.397,-0.027 0.137,0.06 0.225,0.161 0.264,0.304 0.039,0.142 0.041,0.3 0.008,0.474 C 0.127,-0.34 0.074,-0.169 0,0 m -0.941,-1.518 c -0.312,0.157 -0.552,0.427 -0.719,0.81 -0.081,0.187 -0.129,0.373 -0.143,0.559 -0.015,0.185 0.002,0.359 0.05,0.522 0.049,0.163 0.125,0.305 0.23,0.425 0.104,0.12 0.231,0.213 0.38,0.278 0.151,0.065 0.308,0.096 0.47,0.092 C -0.51,1.164 -0.353,1.126 -0.2,1.054 -0.049,0.982 0.091,0.877 0.218,0.741 0.344,0.604 0.45,0.439 0.533,0.247 0.642,-0.002 0.689,-0.25 0.677,-0.495 0.664,-0.741 0.596,-0.957 0.474,-1.145 0.352,-1.332 0.192,-1.469 -0.008,-1.555 c -0.138,-0.061 -0.29,-0.088 -0.455,-0.082 -0.166,0.005 -0.325,0.045 -0.478,0.119"
         style="fill:#0e1e2d;fill-opacity:1;fill-rule:nonzero;stroke:none"
         id="path426"
         inkscape:connector-curvature="0" /></g><g
       id="g428"
       transform="matrix(5,0,0,5,290.3255,-26.5845)"><path
         d="M 0,0 C 0.153,0.091 0.269,0.214 0.35,0.369 0.431,0.524 0.423,0.687 0.326,0.858 0.249,0.993 0.157,1.074 0.049,1.101 -0.059,1.128 -0.169,1.11 -0.281,1.046 -0.379,0.991 -0.431,0.933 -0.438,0.872 -0.448,0.824 -0.422,0.744 -0.359,0.633 L 0,0 z M 0.478,-0.833 C 0.531,-0.926 0.58,-0.976 0.626,-0.983 L 0.668,-0.987 C 0.726,-0.996 0.765,-1.019 0.786,-1.055 0.828,-1.13 0.807,-1.192 0.721,-1.241 L 0.222,-1.524 C 0.136,-1.573 0.072,-1.56 0.029,-1.485 0.014,-1.458 0.008,-1.436 0.011,-1.42 c 0.003,0.017 0.012,0.041 0.025,0.075 l 0.013,0.035 c 0.021,0.037 0.003,0.106 -0.053,0.203 l -0.884,1.56 c -0.058,0.102 -0.108,0.154 -0.151,0.156 l -0.037,0.007 c -0.037,0.006 -0.063,0.011 -0.078,0.016 -0.015,0.006 -0.03,0.022 -0.045,0.049 -0.043,0.075 -0.021,0.137 0.065,0.186 l 0.93,0.534 C -0.012,1.51 0.151,1.562 0.283,1.556 0.38,1.553 0.477,1.521 0.571,1.459 0.665,1.399 0.742,1.316 0.8,1.213 0.951,0.948 0.937,0.662 0.76,0.353 0.993,0.251 1.266,0.054 1.577,-0.238 1.633,-0.285 1.674,-0.316 1.701,-0.332 1.728,-0.348 1.766,-0.359 1.815,-0.365 1.853,-0.37 1.878,-0.374 1.892,-0.379 1.905,-0.383 1.919,-0.398 1.935,-0.424 1.971,-0.489 1.944,-0.547 1.852,-0.599 L 1.34,-0.89 C 1.292,-0.917 1.25,-0.932 1.214,-0.936 1.178,-0.94 1.147,-0.919 1.12,-0.872 c -0.018,0.033 -0.018,0.074 0.003,0.124 0.021,0.05 0.023,0.09 0.005,0.121 C 1.085,-0.55 0.976,-0.448 0.8,-0.318 0.625,-0.189 0.483,-0.099 0.374,-0.049 l -0.227,-0.2 0.331,-0.584 z"
         style="fill:#0e1e2d;fill-opacity:1;fill-rule:nonzero;stroke:none"
         id="path430"
         inkscape:connector-curvature="0" /></g><g
       id="g432"
       transform="matrix(5,0,0,5,303.33,-22.9215)"><path
         d="m 0,0 c 0.079,-0.114 0.142,-0.187 0.187,-0.22 0.045,-0.033 0.096,-0.04 0.153,-0.021 0.057,0.02 0.145,0.071 0.265,0.153 0.086,0.06 0.147,0.116 0.184,0.169 C 0.826,0.134 0.847,0.21 0.851,0.31 0.849,0.383 0.85,0.439 0.854,0.48 0.858,0.521 0.874,0.552 0.903,0.572 0.926,0.589 0.954,0.593 0.986,0.585 1.018,0.578 1.044,0.561 1.063,0.534 1.101,0.479 1.15,0.373 1.208,0.215 1.237,0.141 1.248,0.09 1.241,0.061 1.233,0.033 1.201,-0.001 1.145,-0.04 l -1.21,-0.849 c -0.081,-0.057 -0.146,-0.05 -0.196,0.021 -0.018,0.025 -0.026,0.046 -0.024,0.063 0.002,0.016 0.008,0.041 0.018,0.076 l 0.014,0.039 c 0.013,0.044 -0.011,0.111 -0.072,0.197 L -1.358,0.98 C -1.422,1.072 -1.477,1.119 -1.523,1.122 L -1.562,1.117 c -0.062,0.003 -0.106,0.022 -0.131,0.058 -0.026,0.036 -0.032,0.072 -0.02,0.106 0.013,0.035 0.035,0.063 0.067,0.085 l 1.153,0.809 c 0.07,0.049 0.126,0.068 0.167,0.056 C -0.27,2.208 -0.189,2.12 -0.081,1.967 -0.02,1.88 -0.018,1.815 -0.078,1.774 -0.11,1.751 -0.169,1.754 -0.255,1.785 -0.35,1.82 -0.43,1.826 -0.497,1.803 -0.562,1.783 -0.651,1.734 -0.763,1.655 -0.87,1.58 -0.933,1.523 -0.95,1.485 -0.979,1.44 -0.978,1.395 -0.947,1.351 l 0.399,-0.569 0.372,0.261 c 0.049,0.035 0.08,0.065 0.09,0.092 0.011,0.026 0.018,0.059 0.023,0.099 0.006,0.039 0.018,0.067 0.039,0.082 C 0.036,1.357 0.115,1.307 0.214,1.166 0.274,1.08 0.313,1.012 0.332,0.961 0.352,0.911 0.343,0.872 0.306,0.846 0.283,0.831 0.252,0.826 0.212,0.834 0.172,0.841 0.139,0.844 0.113,0.843 0.087,0.843 0.05,0.825 0.001,0.791 L -0.371,0.53 0,0 z"
         style="fill:#0e1e2d;fill-opacity:1;fill-rule:nonzero;stroke:none"
         id="path434"
         inkscape:connector-curvature="0" /></g><g
       id="g436"
       transform="matrix(5,0,0,5,316.6315,-5.4335)"><path
         d="M 0,0 C 0.193,0.097 0.352,0.143 0.476,0.139 0.683,0.132 0.864,0.047 1.021,-0.117 1.225,-0.33 1.321,-0.571 1.308,-0.839 1.294,-1.085 1.19,-1.301 0.996,-1.487 0.842,-1.634 0.67,-1.733 0.481,-1.784 0.374,-1.805 0.261,-1.807 0.143,-1.791 c -0.119,0.017 -0.212,0.061 -0.28,0.133 -0.039,0.039 -0.062,0.085 -0.071,0.135 -0.009,0.051 0.002,0.091 0.032,0.119 0.048,0.047 0.122,0.051 0.22,0.013 0.021,-0.006 0.053,-0.016 0.096,-0.029 0.043,-0.013 0.075,-0.022 0.098,-0.028 0.021,-0.005 0.047,-0.009 0.076,-0.011 0.029,-0.002 0.057,-0.003 0.084,-0.002 0.142,0.011 0.267,0.068 0.372,0.169 0.085,0.08 0.136,0.182 0.153,0.304 0.017,0.121 -0.023,0.232 -0.119,0.333 -0.093,0.098 -0.197,0.132 -0.31,0.103 -0.091,-0.016 -0.216,-0.073 -0.373,-0.169 -0.192,-0.11 -0.357,-0.171 -0.494,-0.183 -0.237,-0.009 -0.44,0.075 -0.611,0.254 -0.088,0.091 -0.155,0.2 -0.202,0.324 -0.046,0.124 -0.066,0.244 -0.059,0.363 0.013,0.212 0.11,0.404 0.29,0.576 0.177,0.169 0.383,0.275 0.619,0.318 C -0.279,0.939 -0.234,0.93 -0.202,0.906 -0.15,0.876 -0.067,0.8 0.05,0.678 0.121,0.603 0.13,0.54 0.075,0.488 0.051,0.465 0.011,0.462 -0.046,0.481 -0.102,0.498 -0.173,0.521 -0.257,0.55 -0.341,0.577 -0.424,0.585 -0.507,0.574 -0.59,0.562 -0.672,0.517 -0.754,0.439 c -0.07,-0.067 -0.11,-0.15 -0.121,-0.25 -0.011,-0.1 0.023,-0.191 0.101,-0.273 0.083,-0.086 0.166,-0.126 0.251,-0.119 0.085,0.007 0.185,0.038 0.301,0.093 L 0,0 z"
         style="fill:#0e1e2d;fill-opacity:1;fill-rule:nonzero;stroke:none"
         id="path438"
         inkscape:connector-curvature="0" /></g><g
       id="g440"
       transform="matrix(5,0,0,5,326.5375,1.559)"><path
         d="M 0,0 -0.052,0.025 -0.977,0.391 -0.439,-0.516 0,0 z m 0.193,-1.629 c -0.048,-0.056 -0.09,-0.092 -0.124,-0.107 -0.035,-0.015 -0.072,-0.006 -0.112,0.029 -0.026,0.022 -0.041,0.061 -0.047,0.117 0.004,0.055 -0.007,0.105 -0.034,0.151 l -0.247,0.355 c -0.173,0.243 -0.411,0.631 -0.715,1.165 -0.1,0.169 -0.196,0.348 -0.289,0.536 -0.027,0.058 -0.036,0.103 -0.028,0.133 0.007,0.031 0.031,0.07 0.071,0.117 0.053,0.063 0.102,0.098 0.145,0.104 0.043,0.007 0.111,-0.008 0.204,-0.044 L 0.793,0.229 1.155,0.056 C 1.188,0.043 1.21,0.035 1.224,0.035 1.238,0.034 1.266,0.037 1.306,0.043 1.353,0.057 1.392,0.05 1.426,0.021 1.492,-0.035 1.491,-0.102 1.425,-0.179 L 1.095,-0.567 C 1.014,-0.663 0.942,-0.684 0.879,-0.631 0.847,-0.604 0.835,-0.564 0.841,-0.51 c 0.006,0.053 0,0.088 -0.02,0.105 -0.049,0.042 -0.208,0.122 -0.475,0.241 L 0.29,-0.136 -0.258,-0.779 c 0.011,-0.013 0.04,-0.056 0.09,-0.128 0.049,-0.073 0.092,-0.133 0.128,-0.181 0.036,-0.049 0.067,-0.084 0.093,-0.106 0.029,-0.024 0.054,-0.037 0.078,-0.04 0.023,-0.002 0.05,0 0.081,0.008 0.031,0.008 0.057,0.011 0.078,0.011 0.021,0 0.044,-0.01 0.067,-0.03 C 0.395,-1.277 0.409,-1.313 0.396,-1.352 0.384,-1.392 0.352,-1.441 0.301,-1.501 L 0.193,-1.629 z"
         style="fill:#0e1e2d;fill-opacity:1;fill-rule:nonzero;stroke:none"
         id="path442"
         inkscape:connector-curvature="0" /></g><g
       id="g444"
       transform="matrix(5,0,0,5,331.2505,17.0845)"><path
         d="m 0,0 c -0.018,0.012 -0.054,0.031 -0.11,0.056 -0.049,0.013 -0.1,-0.001 -0.153,-0.039 -0.054,-0.024 -0.104,-0.021 -0.149,0.01 -0.065,0.044 -0.059,0.123 0.019,0.238 l 0.146,0.217 c 0.075,0.112 0.145,0.146 0.21,0.103 C 0.009,0.554 0.031,0.509 0.029,0.451 0.014,0.387 0.022,0.336 0.053,0.299 0.067,0.28 0.096,0.251 0.143,0.213 L 1.836,-0.925 C 1.929,-0.988 1.983,-1.037 1.998,-1.072 2.013,-1.106 1.997,-1.161 1.948,-1.233 1.907,-1.293 1.864,-1.325 1.818,-1.329 1.776,-1.333 1.624,-1.321 1.365,-1.293 l -1.871,0.121 1.309,-0.881 c 0.052,-0.027 0.09,-0.045 0.114,-0.053 0.022,-0.006 0.041,-0.008 0.058,-0.005 0.016,0.003 0.032,0.009 0.047,0.017 0.015,0.009 0.029,0.017 0.044,0.024 0.05,0.031 0.099,0.03 0.147,-0.002 C 1.278,-2.116 1.271,-2.195 1.194,-2.31 L 1.048,-2.527 C 0.973,-2.639 0.903,-2.673 0.838,-2.63 c -0.05,0.033 -0.07,0.077 -0.062,0.13 0.006,0.041 0.009,0.07 0.008,0.089 0,0.019 -0.01,0.04 -0.03,0.064 -0.016,0.019 -0.047,0.047 -0.091,0.085 l -1.381,0.928 c -0.034,0.022 -0.067,0.044 -0.1,0.067 -0.034,0.022 -0.066,0.038 -0.095,0.049 -0.03,0.011 -0.058,0.015 -0.086,0.014 -0.028,-0.003 -0.057,-0.015 -0.088,-0.037 -0.037,-0.024 -0.066,-0.038 -0.09,-0.044 -0.023,-0.006 -0.051,0.002 -0.086,0.026 -0.071,0.048 -0.075,0.12 -0.01,0.216 l 0.229,0.34 c 0.033,0.05 0.059,0.08 0.077,0.092 0.018,0.012 0.058,0.02 0.121,0.025 0.089,0.005 0.191,0.005 0.306,0 0.114,-0.005 0.223,-0.01 0.326,-0.017 0.103,-0.007 0.246,-0.017 0.428,-0.03 L 1.033,-0.695 0,0 z"
         style="fill:#0e1e2d;fill-opacity:1;fill-rule:nonzero;stroke:none"
         id="path446"
         inkscape:connector-curvature="0" /></g><g
       id="g448"
       transform="matrix(5,0,0,5,341.6165,26.5505)"><path
         d="m 0,0 c -0.163,0.082 -0.331,0.145 -0.504,0.19 -0.173,0.044 -0.333,0.052 -0.48,0.024 -0.147,-0.029 -0.254,-0.109 -0.321,-0.242 -0.096,-0.191 -0.047,-0.399 0.148,-0.622 0.142,-0.161 0.336,-0.303 0.584,-0.429 0.16,-0.08 0.327,-0.143 0.502,-0.189 0.175,-0.045 0.338,-0.055 0.487,-0.03 0.15,0.026 0.257,0.104 0.323,0.234 0.067,0.133 0.07,0.267 0.009,0.402 C 0.686,-0.528 0.587,-0.404 0.451,-0.293 0.315,-0.181 0.165,-0.083 0,0 m 0.247,-1.769 c -0.341,-0.079 -0.698,-0.024 -1.072,0.164 -0.181,0.092 -0.337,0.205 -0.467,0.338 -0.13,0.134 -0.228,0.279 -0.295,0.435 -0.066,0.156 -0.098,0.313 -0.095,0.473 0.004,0.159 0.042,0.311 0.116,0.457 0.073,0.147 0.174,0.27 0.302,0.371 0.128,0.101 0.274,0.172 0.437,0.214 0.163,0.042 0.337,0.05 0.522,0.026 C -0.12,0.685 0.065,0.625 0.253,0.531 0.495,0.408 0.69,0.249 0.837,0.051 0.984,-0.146 1.071,-0.355 1.096,-0.577 1.122,-0.799 1.086,-1.007 0.988,-1.201 0.92,-1.336 0.82,-1.454 0.689,-1.555 0.559,-1.656 0.411,-1.728 0.247,-1.769"
         style="fill:#0e1e2d;fill-opacity:1;fill-rule:nonzero;stroke:none"
         id="path450"
         inkscape:connector-curvature="0" /></g><g
       id="g452"
       transform="matrix(5,0,0,5,206.949,200.015)"><path
         d="m 0,0 c 0,0.036 0.008,0.069 0.023,0.099 0.016,0.029 0.036,0.044 0.061,0.044 l 0.06,0 c 0.052,0 0.09,0.017 0.114,0.053 0.018,0.025 0.026,0.076 0.026,0.154 l 0,1.185 C 0.284,1.592 0.279,1.63 0.268,1.652 0.25,1.669 0.224,1.678 0.191,1.678 l -0.17,0 c -0.045,0 -0.072,0.005 -0.081,0.016 -0.006,0.011 -0.008,0.082 -0.008,0.212 0.003,0.012 0.046,0.023 0.13,0.033 0.083,0.009 0.157,0.027 0.222,0.053 0.082,0.031 0.151,0.072 0.208,0.124 0.057,0.051 0.106,0.077 0.149,0.077 0.074,0 0.111,-0.059 0.111,-0.175 l 0,-1.668 C 0.752,0.28 0.762,0.23 0.781,0.201 0.805,0.162 0.833,0.143 0.866,0.143 l 0.065,0 c 0.065,0 0.097,-0.048 0.097,-0.143 0,-0.103 -0.031,-0.154 -0.093,-0.154 l -0.842,0 C 0.031,-0.154 0,-0.103 0,0"
         style="fill:#0e1e2d;fill-opacity:1;fill-rule:nonzero;stroke:none"
         id="path454"
         inkscape:connector-curvature="0" /></g><g
       id="g456"
       transform="matrix(5,0,0,5,220.188,208.275)"><path
         d="m 0,0 c 0,0.078 -0.029,0.136 -0.088,0.175 -0.058,0.039 -0.135,0.058 -0.232,0.058 -0.24,-0.006 -0.361,-0.092 -0.361,-0.26 0,-0.086 0.051,-0.152 0.153,-0.2 0.102,-0.047 0.173,-0.071 0.213,-0.071 0.034,0 0.094,0.026 0.182,0.078 C -0.046,-0.168 -0.001,-0.095 0,0 m -0.519,-0.643 c -0.008,0 -0.043,-0.02 -0.106,-0.059 -0.062,-0.038 -0.119,-0.092 -0.172,-0.159 -0.052,-0.067 -0.08,-0.147 -0.083,-0.239 0,-0.118 0.044,-0.211 0.13,-0.277 0.086,-0.067 0.195,-0.1 0.325,-0.1 0.119,0.006 0.219,0.036 0.301,0.089 0.081,0.053 0.127,0.133 0.136,0.24 0,0.175 -0.066,0.299 -0.199,0.373 -0.133,0.074 -0.243,0.118 -0.332,0.132 M -0.8,-0.511 c -0.016,0 -0.053,0.017 -0.112,0.051 -0.06,0.033 -0.115,0.088 -0.167,0.164 -0.052,0.075 -0.078,0.172 -0.078,0.291 0.012,0.212 0.095,0.358 0.251,0.438 0.155,0.079 0.336,0.12 0.544,0.12 C -0.15,0.55 0.026,0.501 0.167,0.407 0.307,0.312 0.378,0.178 0.378,0.005 0.374,-0.244 0.255,-0.4 0.021,-0.463 c 0.124,-0.033 0.228,-0.098 0.31,-0.197 0.083,-0.099 0.128,-0.224 0.136,-0.376 0,-0.282 -0.072,-0.483 -0.215,-0.603 -0.143,-0.12 -0.363,-0.183 -0.661,-0.188 -0.274,0 -0.482,0.063 -0.622,0.191 -0.14,0.127 -0.21,0.304 -0.21,0.531 0.004,0.113 0.026,0.21 0.068,0.289 0.041,0.079 0.088,0.14 0.141,0.183 0.053,0.043 0.102,0.075 0.148,0.094 0.046,0.019 0.074,0.028 0.084,0.028"
         style="fill:#0e1e2d;fill-opacity:1;fill-rule:nonzero;stroke:none"
         id="path458"
         inkscape:connector-curvature="0" /></g><g
       id="g460"
       transform="matrix(5,0,0,5,228.731,205.351)"><path
         d="m 0,0 c -0.124,-0.003 -0.221,-0.048 -0.29,-0.137 -0.07,-0.089 -0.105,-0.194 -0.105,-0.314 0,-0.12 0.035,-0.225 0.105,-0.314 0.069,-0.089 0.166,-0.135 0.29,-0.138 0.127,0.003 0.224,0.047 0.293,0.132 0.068,0.085 0.102,0.187 0.102,0.304 0,0.078 -0.015,0.153 -0.046,0.225 C 0.317,-0.17 0.272,-0.111 0.212,-0.067 0.152,-0.022 0.082,0 0,0 M 0.463,0.956 C 0.456,0.951 0.414,0.939 0.336,0.919 0.257,0.898 0.177,0.865 0.094,0.82 0.012,0.774 -0.068,0.704 -0.145,0.611 -0.239,0.5 -0.303,0.357 -0.336,0.18 c 0.004,0.005 0.02,0.02 0.048,0.048 0.028,0.027 0.075,0.051 0.139,0.073 0.065,0.023 0.15,0.034 0.255,0.034 0.221,0 0.399,-0.071 0.534,-0.212 C 0.774,-0.018 0.841,-0.232 0.841,-0.52 0.83,-0.759 0.744,-0.939 0.586,-1.06 0.427,-1.182 0.226,-1.242 -0.018,-1.242 c -0.179,0 -0.333,0.042 -0.461,0.126 -0.127,0.084 -0.224,0.199 -0.29,0.344 -0.065,0.146 -0.098,0.307 -0.098,0.485 0,0.03 0.003,0.076 0.008,0.138 0.026,0.269 0.093,0.491 0.201,0.667 0.108,0.176 0.229,0.307 0.363,0.393 0.135,0.086 0.26,0.145 0.376,0.176 0.117,0.031 0.212,0.048 0.284,0.05 0.042,0 0.076,-0.01 0.1,-0.03 0.024,-0.02 0.036,-0.044 0.036,-0.071 0,-0.032 -0.013,-0.059 -0.038,-0.08"
         style="fill:#0e1e2d;fill-opacity:1;fill-rule:nonzero;stroke:none"
         id="path462"
         inkscape:connector-curvature="0" /></g><g
       id="g464"
       transform="matrix(5,0,0,5,239.6755,207.6595)"><path
         d="m 0,0 c 0,0.071 -0.014,0.106 -0.043,0.106 -0.064,0 -0.182,-0.111 -0.352,-0.334 -0.157,-0.205 -0.235,-0.372 -0.235,-0.5 0.012,-0.02 0.046,-0.031 0.103,-0.031 L 0,-0.759 0,0 z m 0.463,-1.04 0,-0.139 c 0,-0.07 0.01,-0.12 0.03,-0.149 0.022,-0.039 0.052,-0.058 0.089,-0.058 l 0.059,0 c 0.029,0 0.052,-0.013 0.07,-0.038 0.019,-0.025 0.028,-0.058 0.028,-0.1 0,-0.106 -0.031,-0.159 -0.094,-0.159 l -0.837,0 c -0.057,0 -0.085,0.046 -0.085,0.137 0,0.107 0.03,0.16 0.089,0.16 l 0.047,0 c 0.051,0 0.091,0.017 0.119,0.053 C -0.007,-1.308 0,-1.257 0,-1.179 l 0,0.139 -0.897,0 c -0.063,0 -0.099,0.016 -0.11,0.047 -0.009,0.024 -0.014,0.051 -0.014,0.08 0,0.098 0.042,0.23 0.125,0.398 0.083,0.168 0.192,0.339 0.326,0.515 0.1,0.131 0.208,0.247 0.324,0.348 0.115,0.101 0.224,0.179 0.326,0.234 0.102,0.054 0.181,0.082 0.238,0.082 0.097,0 0.145,-0.046 0.145,-0.138 l 0,-1.285 0.259,0 c 0.053,0 0.082,-0.046 0.085,-0.138 0,-0.096 -0.027,-0.143 -0.081,-0.143 l -0.263,0 z"
         style="fill:#0e1e2d;fill-opacity:1;fill-rule:nonzero;stroke:none"
         id="path466"
         inkscape:connector-curvature="0" /></g></g></svg>