<?xml version="1.0" encoding="UTF-8" standalone="yes"?>
<!-- Created with sK1/UniConvertor (http://sk1project.org/) -->
<svg xmlns="http://www.w3.org/2000/svg" xmlns:xlink="http://www.w3.org/1999/xlink"
  width="595.276pt" height="841.89pt" viewBox="0 0 595.276 841.89"
  fill-rule="evenodd">
<g>
<g>
<path style="stroke:none; fill:#ffffff" d="M 399.391 526.511C 399.71 526.835 399.869 527.222 399.869 527.677C 399.869 528.135 399.71 528.527 399.391 528.851C 399.071 529.175 398.683 529.334 398.226 529.334C 397.77 529.334 397.38 529.175 397.06 528.851C 396.742 528.527 396.582 528.135 396.582 527.677C 396.582 527.222 396.744 526.835 397.064 526.511C 397.385 526.188 397.772 526.027 398.226 526.027C 398.681 526.027 399.069 526.188 399.391 526.511zM 399.582 526.328C 399.207 525.955 398.755 525.768 398.226 525.768C 397.699 525.768 397.25 525.955 396.877 526.328C 396.505 526.7 396.316 527.15 396.316 527.677C 396.316 528.208 396.503 528.662 396.872 529.035C 397.244 529.411 397.696 529.596 398.226 529.596C 398.755 529.596 399.207 529.411 399.582 529.035C 399.954 528.657 400.14 528.208 400.14 527.677C 400.14 527.15 399.954 526.7 399.582 526.328zM 398.509 527.59C 398.431 527.618 398.314 527.633 398.158 527.633L 397.824 527.633L 397.824 526.874L 398.14 526.874C 398.345 526.874 398.494 526.898 398.586 526.951C 398.681 527.005 398.727 527.107 398.727 527.261C 398.727 527.42 398.654 527.531 398.509 527.59zM 397.455 528.721L 397.824 528.721L 397.824 527.895L 398.117 527.895C 398.314 527.895 398.45 527.918 398.527 527.961C 398.661 528.038 398.727 528.198 398.727 528.444L 398.727 528.609L 398.733 528.677C 398.736 528.688 398.738 528.696 398.738 528.701C 398.74 528.706 398.743 528.715 398.743 528.721L 399.091 528.721L 399.076 528.696C 399.069 528.677 399.062 528.644 399.06 528.585C 399.057 528.532 399.055 528.479 399.055 528.431L 399.055 528.276C 399.055 528.17 399.017 528.064 398.94 527.952C 398.863 527.841 398.743 527.768 398.579 527.744C 398.707 527.725 398.809 527.691 398.883 527.643C 399.019 527.555 399.089 527.415 399.089 527.227C 399.089 526.966 398.979 526.787 398.763 526.695C 398.642 526.647 398.45 526.623 398.19 526.623L 397.455 526.623L 397.455 528.721z"/>
<path style="stroke:none; fill:#2c2c2b" d="M 334.412 435.927L 399.188 435.937L 399.188 458.459L 417.489 453.199L 412.866 472.366L 399.188 473.917L 399.188 474.218L 405.191 481.048L 399.188 481.729L 399.188 523.693L 385.919 523.693L 355.827 523.693L 334.412 523.688L 334.412 493.988L 303.982 497.236L 332.573 487.352L 329.305 483.668L 334.412 482.174L 334.412 435.927z"/>
<path style="stroke:none; fill:#2c2c2b" d="M 334.412 435.927L 399.188 435.937L 399.188 458.459L 417.489 453.199L 412.866 472.366L 399.188 473.917L 399.188 474.218L 405.191 481.048L 399.188 481.729L 399.188 523.693L 385.919 523.693L 355.827 523.693L 334.412 523.688L 334.412 493.988L 303.982 497.236L 332.573 487.352L 329.305 483.668L 334.412 482.174L 334.412 435.927z"/>
<path style="stroke:none; fill:#0099a8" d="M 338.356 481.025L 338.361 459.237L 395.256 459.237L 395.256 459.589L 378.305 464.458L 381.882 468.417L 377.505 469.669L 376.108 468.17L 370.675 465.976L 368.06 467.779L 364.852 466.7L 361.046 469.81L 358.019 469.509L 355.145 472.443L 352.484 471.898L 348.443 476.272L 348.737 477.993L 338.356 481.025z"/>
<path style="stroke:none; fill:#ffffff" d="M 342.256 454.674L 342.256 450.197L 345.61 450.197L 347.641 448.321L 347.641 442.308L 345.693 440.476L 338.361 440.476L 338.361 454.674L 342.256 454.674zM 342.256 447.04L 342.256 443.628L 343.706 443.628L 343.706 447.04L 342.256 447.04z"/>
<path style="stroke:none; fill:#ffffff" d="M 351.464 454.674L 356.768 454.674L 358.713 452.821L 358.713 442.347L 356.768 440.476L 351.464 440.476L 349.519 442.347L 349.519 452.821L 351.464 454.674zM 353.391 451.518L 353.391 443.608L 354.821 443.608L 354.821 451.518L 353.391 451.518z"/>
<path style="stroke:none; fill:#ffffff" d="M 362.026 454.674L 366.403 454.674L 367.342 447.133L 368.282 454.674L 372.659 454.674L 374.523 440.476L 370.974 440.476L 370.234 447.733L 369.364 440.476L 365.382 440.476L 364.407 447.438L 363.691 440.476L 360.142 440.476L 362.026 454.674z"/>
<path style="stroke:none; fill:#ffffff" d="M 384.071 454.674L 384.071 451.125L 379.951 451.125L 379.951 449.153L 383.762 449.153L 383.762 445.74L 379.951 445.74L 379.951 443.889L 384.115 443.889L 384.115 440.476L 376.058 440.476L 376.058 454.674L 384.071 454.674z"/>
<path style="stroke:none; fill:#ffffff" d="M 389.89 454.674L 389.89 448.954L 391.423 448.954L 391.423 454.674L 395.297 454.674L 395.297 448.897L 393.724 447.418L 395.316 445.857L 395.316 442.347L 393.349 440.476L 385.996 440.476L 385.996 454.674L 389.89 454.674zM 389.89 445.92L 389.89 443.454L 391.423 443.454L 391.423 445.92L 389.89 445.92z"/>
<path style="stroke:none; fill:#ffffff" d="M 342.297 493.148L 342.297 519.759L 338.361 519.759L 338.35 493.567L 342.297 493.148z"/>
<path style="stroke:none; fill:#ffffff" d="M 349.861 492.34L 349.861 519.759L 345.927 519.759L 345.927 492.756L 349.861 492.34z"/>
<path style="stroke:none; fill:#ffffff" d="M 356.038 519.759L 353.492 519.759L 353.49 512.952L 356.038 519.759z"/>
<path style="stroke:none; fill:#ffffff" d="M 353.487 509.003L 353.48 496.222L 353.478 487.313L 356.216 495.589L 358.335 496.192L 353.487 509.003z"/>
<path style="stroke:none; fill:#ffffff" d="M 380.122 492.46L 380.122 508.868L 376.794 504.932L 375.46 496.493L 380.122 492.46z"/>
<path style="stroke:none; fill:#ffffff" d="M 387.688 483.039L 387.688 519.759L 384.284 519.759L 383.755 517.249L 383.755 483.488L 387.688 483.039z"/>
<path style="stroke:none; fill:#ffffff" d="M 395.256 482.179L 395.256 519.759L 391.32 519.759L 391.32 482.629L 395.256 482.179z"/>
<path style="stroke:none; fill:#ffffff" d="M 413.67 456.921L 410.482 470.191L 393.559 472.067L 399.764 479.172L 383.755 480.932L 382.992 479.82L 376.2 476.315L 376.19 472.617L 386.619 469.494L 383.171 465.705L 413.67 456.921z"/>
<path style="stroke:none; fill:#bec4c8" d="M 373.877 480.386L 375.75 479.153L 381.027 481.875L 378.854 488.531L 373.526 482.692L 373.877 480.386z"/>
<path style="stroke:none; fill:#bec4c8" d="M 376.19 491.126L 371.347 493.636L 365.446 491.74L 359.315 492.862L 356.421 486.698L 363.148 485.525L 360.172 487.642L 361.058 489.223L 364.75 487.096L 371.612 484.451L 376.19 491.126z"/>
<path style="stroke:none; fill:#bec4c8" d="M 364.992 483.059L 362.536 480.439L 363.619 471.221L 365.41 469.76L 367.035 470.307L 365.536 479.491L 364.05 479.864L 366.31 482.895L 364.992 483.059z"/>
<path style="stroke:none; fill:#bec4c8" d="M 360.107 483.605L 357.043 481.526L 357.471 473.967L 359.051 472.347L 360.738 472.517L 360.215 480.801L 358.901 481.102L 361.541 483.422L 360.107 483.605z"/>
<path style="stroke:none; fill:#bec4c8" d="M 354.022 484.292L 352.315 483.185L 351.353 477.138L 353.441 474.875L 354.848 475.165L 355.054 482.034L 353.676 482.362L 355.549 484.118L 354.022 484.292z"/>
<path style="stroke:none; fill:#bec4c8" d="M 370.503 469.403L 371.013 469.05L 373.394 470.012L 372.369 477.78L 370.116 478.403L 370.595 482.411L 369.507 482.546L 368.019 479.206L 370.503 469.403z"/>
<path style="stroke:none; fill:#ffffff" d="M 349.135 480.414L 334.011 484.789L 337.347 488.415L 323.4 492.65L 347.96 489.513L 344.186 485.418L 349.913 484.732L 349.135 480.414z"/>
<path style="stroke:none; fill:#bec4c8" d="M 378.61 519.759L 378.005 513.406L 372.094 505.802L 371.649 497.706L 365.636 494.97L 361.228 496.207L 357.746 511.425L 362.315 519.759L 378.61 519.759z"/>
</g>
</g>
</svg>